<?xml version="1.0" encoding="utf-8"?>
<!-- Generator: Adobe Illustrator 17.0.0, SVG Export Plug-In . SVG Version: 6.00 Build 0)  -->
<!DOCTYPE svg PUBLIC "-//W3C//DTD SVG 1.1//EN" "http://www.w3.org/Graphics/SVG/1.1/DTD/svg11.dtd">
<svg version="1.1" id="Layer_1" xmlns="http://www.w3.org/2000/svg" xmlns:xlink="http://www.w3.org/1999/xlink" x="0px" y="0px"
	 width="810.081px" height="528.988px" viewBox="0 0 810.081 528.988" enable-background="new 0 0 810.081 528.988"
	 xml:space="preserve">
<g>
	<g>
		
			<image overflow="visible" opacity="0.07" width="301" height="301" xlink:href="48BD3F35E78F2071.png"  transform="matrix(1 0 0 1 248.5405 121.994)">
		</image>
		<g>
			<circle fill="#EBEBEB" cx="414" cy="253" r="147"/>
		</g>
	</g>
	<circle fill="#F1F1FA" cx="413" cy="253" r="139.65"/>
	<circle fill="#E6E6E6" cx="414" cy="253" r="118.702"/>
	<path fill="#CCCCCC" d="M512,314.994c0,0-27,54-94,56c-71.975,2.148-101-56-101-56s51.884,0,98,0S512,314.994,512,314.994z"/>
	<path fill="#7F7373" d="M434.54,382.994c0-4.418-3.582-8-8-8h-24c-4.418,0-8,3.582-8,8l0,0c0,4.418,3.582,8,8,8h24
		C430.959,390.994,434.54,387.412,434.54,382.994L434.54,382.994z"/>
</g>
</svg>
