<?xml version="1.0" encoding="utf-8"?>
<!-- Generator: Adobe Illustrator 17.0.0, SVG Export Plug-In . SVG Version: 6.00 Build 0)  -->
<!DOCTYPE svg PUBLIC "-//W3C//DTD SVG 1.1//EN" "http://www.w3.org/Graphics/SVG/1.1/DTD/svg11.dtd">
<svg version="1.1" id="Layer_1" xmlns="http://www.w3.org/2000/svg" xmlns:xlink="http://www.w3.org/1999/xlink" x="0px" y="0px"
	 width="960px" height="560px" viewBox="0 0 960 560" enable-background="new 0 0 960 560" xml:space="preserve">
<g>
	<g>
		<radialGradient id="SVGID_1_" cx="500.1854" cy="308.872" r="292.7475" gradientUnits="userSpaceOnUse">
			<stop  offset="0" style="stop-color:#D0D2D3"/>
			<stop  offset="0.3988" style="stop-color:#BBBDBF"/>
			<stop  offset="1" style="stop-color:#BBBDBF"/>
		</radialGradient>
		<path fill="url(#SVGID_1_)" d="M100.084,409.605c0,3.131,2.538,5.669,5.669,5.669h788.863c3.131,0,5.669-2.538,5.669-5.669
			V208.139c0-3.131-2.538-5.669-5.669-5.669H105.754c-3.131,0-5.669,2.538-5.669,5.669V409.605z"/>
		<path fill="none" stroke="#BBBDBF" stroke-linejoin="round" d="M100.084,409.605c0,3.131,2.538,5.669,5.669,5.669h788.863
			c3.131,0,5.669-2.538,5.669-5.669V208.139c0-3.131-2.538-5.669-5.669-5.669H105.754c-3.131,0-5.669,2.538-5.669,5.669V409.605z"/>
	</g>
	<g>
		<radialGradient id="SVGID_2_" cx="500.1854" cy="307.0815" r="292.7475" gradientUnits="userSpaceOnUse">
			<stop  offset="0" style="stop-color:#D0D2D3"/>
			<stop  offset="0.3988" style="stop-color:#BBBDBF"/>
			<stop  offset="1" style="stop-color:#BBBDBF"/>
		</radialGradient>
		<path fill="url(#SVGID_2_)" d="M100.084,407.815c0,3.131,2.538,5.669,5.669,5.669h788.863c3.131,0,5.669-2.538,5.669-5.669
			V206.348c0-3.131-2.538-5.669-5.669-5.669H105.754c-3.131,0-5.669,2.538-5.669,5.669V407.815z"/>
		<path fill="none" stroke="#F1F1F2" stroke-width="0.25" stroke-linejoin="round" d="M100.084,407.815
			c0,3.131,2.538,5.669,5.669,5.669h788.863c3.131,0,5.669-2.538,5.669-5.669V206.348c0-3.131-2.538-5.669-5.669-5.669H105.754
			c-3.131,0-5.669,2.538-5.669,5.669V407.815z"/>
	</g>
	<linearGradient id="SVGID_3_" gradientUnits="userSpaceOnUse" x1="501.6147" y1="194.743" x2="501.6147" y2="201.0761">
		<stop  offset="0" style="stop-color:#D0D2D3"/>
		<stop  offset="0.3988" style="stop-color:#BBBDBF"/>
		<stop  offset="1" style="stop-color:#BBBDBF"/>
	</linearGradient>
	<rect x="498.008" y="194.743" fill="url(#SVGID_3_)" width="7.214" height="6.333"/>
	<linearGradient id="SVGID_4_" gradientUnits="userSpaceOnUse" x1="503.9006" y1="136.6395" x2="499.3288" y2="136.6395">
		<stop  offset="0" style="stop-color:#E6E7E8"/>
		<stop  offset="0.1656" style="stop-color:#FFFFFF"/>
		<stop  offset="1" style="stop-color:#E6E7E8"/>
	</linearGradient>
	<rect x="499.329" y="78.536" fill="url(#SVGID_4_)" width="4.572" height="116.207"/>
	<path fill="#EBEBEB" stroke="#F2F2F2" stroke-width="0.25" stroke-linejoin="round" d="M139.764,223.851
		c0,1.969-1.603,3.573-3.574,3.573h-24.153c-1.975,0-3.574-1.603-3.574-3.573v-12.842c0-1.978,1.6-3.574,3.574-3.574h24.153
		c1.971,0,3.574,1.596,3.574,3.574V223.851z"/>
	<path fill="#EBEBEB" stroke="#F2F2F2" stroke-width="0.25" stroke-linejoin="round" d="M176.455,223.851
		c0,1.969-1.6,3.573-3.571,3.573h-24.156c-1.975,0-3.571-1.603-3.571-3.573v-12.842c0-1.978,1.596-3.574,3.571-3.574h24.156
		c1.971,0,3.571,1.596,3.571,3.574V223.851z"/>
	<path fill="#EBEBEB" stroke="#F2F2F2" stroke-width="0.25" stroke-linejoin="round" d="M213.15,223.851
		c0,1.969-1.603,3.573-3.574,3.573h-24.153c-1.975,0-3.574-1.603-3.574-3.573v-12.842c0-1.978,1.6-3.574,3.574-3.574h24.153
		c1.971,0,3.574,1.596,3.574,3.574V223.851z"/>
	<path fill="#EBEBEB" stroke="#F2F2F2" stroke-width="0.25" stroke-linejoin="round" d="M249.842,223.851
		c0,1.969-1.6,3.573-3.571,3.573h-24.156c-1.975,0-3.571-1.603-3.571-3.573v-12.842c0-1.978,1.596-3.574,3.571-3.574h24.156
		c1.971,0,3.571,1.596,3.571,3.574V223.851z"/>
	<path fill="#EBEBEB" stroke="#F2F2F2" stroke-width="0.25" stroke-linejoin="round" d="M286.537,223.851
		c0,1.969-1.603,3.573-3.574,3.573H258.81c-1.975,0-3.574-1.603-3.574-3.573v-12.842c0-1.978,1.6-3.574,3.574-3.574h24.152
		c1.971,0,3.574,1.596,3.574,3.574V223.851z"/>
	<path fill="#EBEBEB" stroke="#F2F2F2" stroke-width="0.25" stroke-linejoin="round" d="M323.229,223.851
		c0,1.969-1.6,3.573-3.571,3.573h-24.156c-1.975,0-3.571-1.603-3.571-3.573v-12.842c0-1.978,1.596-3.574,3.571-3.574h24.156
		c1.971,0,3.571,1.596,3.571,3.574V223.851z"/>
	<path fill="#EBEBEB" stroke="#F2F2F2" stroke-width="0.25" stroke-linejoin="round" d="M359.924,223.851
		c0,1.969-1.603,3.573-3.574,3.573h-24.153c-1.975,0-3.574-1.603-3.574-3.573v-12.842c0-1.978,1.6-3.574,3.574-3.574h24.153
		c1.971,0,3.574,1.596,3.574,3.574V223.851z"/>
	<path fill="#EBEBEB" stroke="#F2F2F2" stroke-width="0.25" stroke-linejoin="round" d="M396.616,223.851
		c0,1.969-1.6,3.573-3.571,3.573h-24.156c-1.975,0-3.571-1.603-3.571-3.573v-12.842c0-1.978,1.596-3.574,3.571-3.574h24.156
		c1.971,0,3.571,1.596,3.571,3.574V223.851z"/>
	<path fill="#EBEBEB" stroke="#F2F2F2" stroke-width="0.25" stroke-linejoin="round" d="M433.311,223.851
		c0,1.969-1.603,3.573-3.574,3.573h-24.153c-1.975,0-3.574-1.603-3.574-3.573v-12.842c0-1.978,1.6-3.574,3.574-3.574h24.153
		c1.971,0,3.574,1.596,3.574,3.574V223.851z"/>
	<path fill="#EBEBEB" stroke="#F2F2F2" stroke-width="0.25" stroke-linejoin="round" d="M470.002,223.851
		c0,1.969-1.6,3.573-3.571,3.573h-24.156c-1.975,0-3.571-1.603-3.571-3.573v-12.842c0-1.978,1.596-3.574,3.571-3.574h24.156
		c1.971,0,3.571,1.596,3.571,3.574V223.851z"/>
	<path fill="#EBEBEB" stroke="#F2F2F2" stroke-width="0.25" stroke-linejoin="round" d="M506.694,223.851
		c0,1.969-1.6,3.573-3.571,3.573h-24.153c-1.975,0-3.574-1.603-3.574-3.573v-12.842c0-1.978,1.6-3.574,3.574-3.574h24.153
		c1.971,0,3.571,1.596,3.571,3.574V223.851z"/>
	<path fill="#EBEBEB" stroke="#F2F2F2" stroke-width="0.25" stroke-linejoin="round" d="M543.389,223.851
		c0,1.969-1.603,3.573-3.571,3.573h-24.156c-1.975,0-3.571-1.603-3.571-3.573v-12.842c0-1.978,1.596-3.574,3.571-3.574h24.156
		c1.968,0,3.571,1.596,3.571,3.574V223.851z"/>
	<path fill="#EBEBEB" stroke="#F2F2F2" stroke-width="0.25" stroke-linejoin="round" d="M580.081,223.851
		c0,1.969-1.6,3.573-3.571,3.573h-24.156c-1.971,0-3.571-1.603-3.571-3.573v-12.842c0-1.978,1.6-3.574,3.571-3.574h24.156
		c1.971,0,3.571,1.596,3.571,3.574V223.851z"/>
	<path fill="#EBEBEB" stroke="#F2F2F2" stroke-width="0.25" stroke-linejoin="round" d="M616.776,223.851
		c0,1.969-1.603,3.573-3.571,3.573h-24.156c-1.974,0-3.571-1.603-3.571-3.573v-12.842c0-1.978,1.596-3.574,3.571-3.574h24.156
		c1.968,0,3.571,1.596,3.571,3.574V223.851z"/>
	<path fill="#EBEBEB" stroke="#F2F2F2" stroke-width="0.25" stroke-linejoin="round" d="M666.093,223.851
		c0,1.969-1.603,3.573-3.571,3.573h-24.156c-1.974,0-3.571-1.603-3.571-3.573v-12.842c0-1.978,1.596-3.574,3.571-3.574h24.156
		c1.968,0,3.571,1.596,3.571,3.574V223.851z"/>
	<path fill="#EBEBEB" stroke="#F2F2F2" stroke-width="0.25" stroke-linejoin="round" d="M702.286,223.851
		c0,1.969-1.6,3.573-3.571,3.573h-24.156c-1.971,0-3.571-1.603-3.571-3.573v-12.842c0-1.978,1.6-3.574,3.571-3.574h24.156
		c1.971,0,3.571,1.596,3.571,3.574V223.851z"/>
	<path fill="#EBEBEB" stroke="#F2F2F2" stroke-width="0.25" stroke-linejoin="round" d="M738.482,223.851
		c0,1.969-1.603,3.573-3.571,3.573h-24.156c-1.975,0-3.571-1.603-3.571-3.573v-12.842c0-1.978,1.596-3.574,3.571-3.574h24.156
		c1.968,0,3.571,1.596,3.571,3.574V223.851z"/>
	<path fill="#EBEBEB" stroke="#F2F2F2" stroke-width="0.25" stroke-linejoin="round" d="M787.623,223.851
		c0,1.969-1.603,3.573-3.571,3.573h-24.156c-1.974,0-3.571-1.603-3.571-3.573v-12.842c0-1.978,1.596-3.574,3.571-3.574h24.156
		c1.968,0,3.571,1.596,3.571,3.574V223.851z"/>
	<path fill="#EBEBEB" stroke="#F2F2F2" stroke-width="0.25" stroke-linejoin="round" d="M822.849,223.851
		c0,1.969-1.6,3.573-3.571,3.573h-24.156c-1.971,0-3.571-1.603-3.571-3.573v-12.842c0-1.978,1.6-3.574,3.571-3.574h24.156
		c1.971,0,3.571,1.596,3.571,3.574V223.851z"/>
	<path fill="#EBEBEB" stroke="#F2F2F2" stroke-width="0.25" stroke-linejoin="round" d="M858.079,223.851
		c0,1.969-1.603,3.573-3.571,3.573h-24.156c-1.975,0-3.571-1.603-3.571-3.573v-12.842c0-1.978,1.596-3.574,3.571-3.574h24.156
		c1.968,0,3.571,1.596,3.571,3.574V223.851z"/>
	<path fill="#EBEBEB" stroke="#F2F2F2" stroke-width="0.25" stroke-linejoin="round" d="M893.305,223.851
		c0,1.969-1.603,3.573-3.571,3.573h-24.156c-1.975,0-3.571-1.603-3.571-3.573v-12.842c0-1.978,1.596-3.574,3.571-3.574h24.156
		c1.968,0,3.571,1.596,3.571,3.574V223.851z"/>
	<path fill="#EBEBEB" stroke="#F2F2F2" stroke-width="0.25" stroke-linejoin="round" d="M138.766,258.635
		c0,1.978-1.6,3.573-3.574,3.573h-24.001c-1.971,0-3.571-1.595-3.571-3.573v-22.108c0-1.971,1.6-3.572,3.571-3.572h24.001
		c1.975,0,3.574,1.601,3.574,3.572V258.635z"/>
	<path fill="#EBEBEB" stroke="#F2F2F2" stroke-width="0.25" stroke-linejoin="round" d="M174.315,258.635
		c0,1.978-1.6,3.573-3.574,3.573H146.74c-1.974,0-3.571-1.595-3.571-3.573v-22.108c0-1.971,1.596-3.572,3.571-3.572h24.001
		c1.975,0,3.574,1.601,3.574,3.572V258.635z"/>
	<path fill="#EBEBEB" stroke="#F2F2F2" stroke-width="0.25" stroke-linejoin="round" d="M209.862,258.635
		c0,1.978-1.6,3.573-3.571,3.573h-24.001c-1.975,0-3.571-1.595-3.571-3.573v-22.108c0-1.971,1.596-3.572,3.571-3.572h24.001
		c1.971,0,3.571,1.601,3.571,3.572V258.635z"/>
	<path fill="#EBEBEB" stroke="#F2F2F2" stroke-width="0.25" stroke-linejoin="round" d="M245.411,258.635
		c0,1.978-1.6,3.573-3.574,3.573h-23.998c-1.975,0-3.574-1.595-3.574-3.573v-22.108c0-1.971,1.6-3.572,3.574-3.572h23.998
		c1.975,0,3.574,1.601,3.574,3.572V258.635z"/>
	<path fill="#EBEBEB" stroke="#F2F2F2" stroke-width="0.25" stroke-linejoin="round" d="M280.961,258.635
		c0,1.978-1.6,3.573-3.574,3.573h-24.001c-1.971,0-3.571-1.595-3.571-3.573v-22.108c0-1.971,1.6-3.572,3.571-3.572h24.001
		c1.975,0,3.574,1.601,3.574,3.572V258.635z"/>
	<path fill="#EBEBEB" stroke="#F2F2F2" stroke-width="0.25" stroke-linejoin="round" d="M316.51,258.635
		c0,1.978-1.6,3.573-3.574,3.573h-24.001c-1.975,0-3.571-1.595-3.571-3.573v-22.108c0-1.971,1.596-3.572,3.571-3.572h24.001
		c1.975,0,3.574,1.601,3.574,3.572V258.635z"/>
	<path fill="#EBEBEB" stroke="#F2F2F2" stroke-width="0.25" stroke-linejoin="round" d="M352.056,258.635
		c0,1.978-1.6,3.573-3.571,3.573h-24.001c-1.975,0-3.571-1.595-3.571-3.573v-22.108c0-1.971,1.596-3.572,3.571-3.572h24.001
		c1.971,0,3.571,1.601,3.571,3.572V258.635z"/>
	<path fill="#EBEBEB" stroke="#F2F2F2" stroke-width="0.25" stroke-linejoin="round" d="M387.606,258.635
		c0,1.978-1.6,3.573-3.574,3.573h-23.998c-1.975,0-3.574-1.595-3.574-3.573v-22.108c0-1.971,1.6-3.572,3.574-3.572h23.998
		c1.975,0,3.574,1.601,3.574,3.572V258.635z"/>
	<path fill="#EBEBEB" stroke="#F2F2F2" stroke-width="0.25" stroke-linejoin="round" d="M423.156,258.635
		c0,1.978-1.6,3.573-3.574,3.573H395.58c-1.971,0-3.571-1.595-3.571-3.573v-22.108c0-1.971,1.6-3.572,3.571-3.572h24.001
		c1.974,0,3.574,1.601,3.574,3.572V258.635z"/>
	<path fill="#EBEBEB" stroke="#F2F2F2" stroke-width="0.25" stroke-linejoin="round" d="M458.705,258.635
		c0,1.978-1.6,3.573-3.574,3.573H431.13c-1.975,0-3.571-1.595-3.571-3.573v-22.108c0-1.971,1.596-3.572,3.571-3.572h24.001
		c1.975,0,3.574,1.601,3.574,3.572V258.635z"/>
	<path fill="#EBEBEB" stroke="#F2F2F2" stroke-width="0.25" stroke-linejoin="round" d="M494.251,258.635
		c0,1.978-1.6,3.573-3.571,3.573h-24.001c-1.975,0-3.571-1.595-3.571-3.573v-22.108c0-1.971,1.596-3.572,3.571-3.572h24.001
		c1.971,0,3.571,1.601,3.571,3.572V258.635z"/>
	<path fill="#EBEBEB" stroke="#F2F2F2" stroke-width="0.25" stroke-linejoin="round" d="M529.801,258.635
		c0,1.978-1.6,3.573-3.574,3.573h-23.998c-1.975,0-3.574-1.595-3.574-3.573v-22.108c0-1.971,1.6-3.572,3.574-3.572h23.998
		c1.975,0,3.574,1.601,3.574,3.572V258.635z"/>
	<path fill="#EBEBEB" stroke="#F2F2F2" stroke-width="0.25" stroke-linejoin="round" d="M565.35,258.635
		c0,1.978-1.6,3.573-3.574,3.573h-24.001c-1.975,0-3.571-1.595-3.571-3.573v-22.108c0-1.971,1.596-3.572,3.571-3.572h24.001
		c1.975,0,3.574,1.601,3.574,3.572V258.635z"/>
	<path fill="#EBEBEB" stroke="#F2F2F2" stroke-width="0.25" stroke-linejoin="round" d="M190.807,293.421
		c0,1.978-1.6,3.572-3.574,3.572h-23.998c-1.975,0-3.574-1.595-3.574-3.572v-22.108c0-1.971,1.6-3.572,3.574-3.572h23.998
		c1.975,0,3.574,1.601,3.574,3.572V293.421z"/>
	<path fill="#EBEBEB" stroke="#F2F2F2" stroke-width="0.25" stroke-linejoin="round" d="M226.357,293.421
		c0,1.978-1.6,3.572-3.574,3.572h-24.001c-1.971,0-3.571-1.595-3.571-3.572v-22.108c0-1.971,1.6-3.572,3.571-3.572h24.001
		c1.975,0,3.574,1.601,3.574,3.572V293.421z"/>
	<path fill="#EBEBEB" stroke="#F2F2F2" stroke-width="0.25" stroke-linejoin="round" d="M261.906,293.421
		c0,1.978-1.6,3.572-3.574,3.572h-24.001c-1.975,0-3.571-1.595-3.571-3.572v-22.108c0-1.971,1.596-3.572,3.571-3.572h24.001
		c1.975,0,3.574,1.601,3.574,3.572V293.421z"/>
	<path fill="#EBEBEB" stroke="#F2F2F2" stroke-width="0.25" stroke-linejoin="round" d="M297.452,293.421
		c0,1.978-1.6,3.572-3.571,3.572H269.88c-1.975,0-3.571-1.595-3.571-3.572v-22.108c0-1.971,1.596-3.572,3.571-3.572h24.001
		c1.971,0,3.571,1.601,3.571,3.572V293.421z"/>
	<path fill="#EBEBEB" stroke="#F2F2F2" stroke-width="0.25" stroke-linejoin="round" d="M333.002,293.421
		c0,1.978-1.6,3.572-3.574,3.572H305.43c-1.975,0-3.574-1.595-3.574-3.572v-22.108c0-1.971,1.6-3.572,3.574-3.572h23.998
		c1.975,0,3.574,1.601,3.574,3.572V293.421z"/>
	<path fill="#EBEBEB" stroke="#F2F2F2" stroke-width="0.25" stroke-linejoin="round" d="M368.552,293.421
		c0,1.978-1.6,3.572-3.574,3.572h-24.001c-1.971,0-3.571-1.595-3.571-3.572v-22.108c0-1.971,1.6-3.572,3.571-3.572h24.001
		c1.975,0,3.574,1.601,3.574,3.572V293.421z"/>
	<path fill="#EBEBEB" stroke="#F2F2F2" stroke-width="0.25" stroke-linejoin="round" d="M404.101,293.421
		c0,1.978-1.6,3.572-3.574,3.572h-24.001c-1.975,0-3.571-1.595-3.571-3.572v-22.108c0-1.971,1.596-3.572,3.571-3.572h24.001
		c1.975,0,3.574,1.601,3.574,3.572V293.421z"/>
	<path fill="#EBEBEB" stroke="#F2F2F2" stroke-width="0.25" stroke-linejoin="round" d="M439.647,293.421
		c0,1.978-1.6,3.572-3.571,3.572h-24.001c-1.975,0-3.571-1.595-3.571-3.572v-22.108c0-1.971,1.596-3.572,3.571-3.572h24.001
		c1.971,0,3.571,1.601,3.571,3.572V293.421z"/>
	<path fill="#EBEBEB" stroke="#F2F2F2" stroke-width="0.25" stroke-linejoin="round" d="M475.197,293.421
		c0,1.978-1.6,3.572-3.574,3.572h-23.998c-1.975,0-3.574-1.595-3.574-3.572v-22.108c0-1.971,1.6-3.572,3.574-3.572h23.998
		c1.975,0,3.574,1.601,3.574,3.572V293.421z"/>
	<path fill="#EBEBEB" stroke="#F2F2F2" stroke-width="0.25" stroke-linejoin="round" d="M510.746,293.421
		c0,1.978-1.6,3.572-3.574,3.572h-24.001c-1.971,0-3.571-1.595-3.571-3.572v-22.108c0-1.971,1.6-3.572,3.571-3.572h24.001
		c1.975,0,3.574,1.601,3.574,3.572V293.421z"/>
	<path fill="#EBEBEB" stroke="#F2F2F2" stroke-width="0.25" stroke-linejoin="round" d="M546.293,293.421
		c0,1.978-1.6,3.572-3.571,3.572H518.72c-1.975,0-3.571-1.595-3.571-3.572v-22.108c0-1.971,1.596-3.572,3.571-3.572h24.001
		c1.971,0,3.571,1.601,3.571,3.572V293.421z"/>
	<path fill="#EBEBEB" stroke="#F2F2F2" stroke-width="0.25" stroke-linejoin="round" d="M581.842,293.421
		c0,1.978-1.6,3.572-3.574,3.572H554.27c-1.975,0-3.574-1.595-3.574-3.572v-22.108c0-1.971,1.6-3.572,3.574-3.572h23.998
		c1.974,0,3.574,1.601,3.574,3.572V293.421z"/>
	<path fill="#EBEBEB" stroke="#F2F2F2" stroke-width="0.25" stroke-linejoin="round" d="M200.054,328.207
		c0,1.978-1.6,3.573-3.574,3.573h-23.998c-1.975,0-3.574-1.595-3.574-3.573v-22.108c0-1.971,1.6-3.572,3.574-3.572h23.998
		c1.975,0,3.574,1.601,3.574,3.572V328.207z"/>
	<path fill="#EBEBEB" stroke="#F2F2F2" stroke-width="0.25" stroke-linejoin="round" d="M235.604,328.207
		c0,1.978-1.6,3.573-3.574,3.573h-24.001c-1.971,0-3.571-1.595-3.571-3.573v-22.108c0-1.971,1.6-3.572,3.571-3.572h24.001
		c1.975,0,3.574,1.601,3.574,3.572V328.207z"/>
	<path fill="#EBEBEB" stroke="#F2F2F2" stroke-width="0.25" stroke-linejoin="round" d="M271.153,328.207
		c0,1.978-1.6,3.573-3.574,3.573h-24.001c-1.975,0-3.571-1.595-3.571-3.573v-22.108c0-1.971,1.596-3.572,3.571-3.572h24.001
		c1.975,0,3.574,1.601,3.574,3.572V328.207z"/>
	<path fill="#EBEBEB" stroke="#F2F2F2" stroke-width="0.25" stroke-linejoin="round" d="M306.699,328.207
		c0,1.978-1.6,3.573-3.571,3.573h-24.001c-1.975,0-3.571-1.595-3.571-3.573v-22.108c0-1.971,1.596-3.572,3.571-3.572h24.001
		c1.971,0,3.571,1.601,3.571,3.572V328.207z"/>
	<path fill="#EBEBEB" stroke="#F2F2F2" stroke-width="0.25" stroke-linejoin="round" d="M342.249,328.207
		c0,1.978-1.6,3.573-3.574,3.573h-23.998c-1.975,0-3.574-1.595-3.574-3.573v-22.108c0-1.971,1.6-3.572,3.574-3.572h23.998
		c1.975,0,3.574,1.601,3.574,3.572V328.207z"/>
	<path fill="#EBEBEB" stroke="#F2F2F2" stroke-width="0.25" stroke-linejoin="round" d="M377.798,328.207
		c0,1.978-1.6,3.573-3.574,3.573h-24.001c-1.971,0-3.571-1.595-3.571-3.573v-22.108c0-1.971,1.6-3.572,3.571-3.572h24.001
		c1.975,0,3.574,1.601,3.574,3.572V328.207z"/>
	<path fill="#EBEBEB" stroke="#F2F2F2" stroke-width="0.25" stroke-linejoin="round" d="M413.348,328.207
		c0,1.978-1.6,3.573-3.574,3.573h-24.001c-1.975,0-3.571-1.595-3.571-3.573v-22.108c0-1.971,1.596-3.572,3.571-3.572h24.001
		c1.975,0,3.574,1.601,3.574,3.572V328.207z"/>
	<path fill="#EBEBEB" stroke="#F2F2F2" stroke-width="0.25" stroke-linejoin="round" d="M448.894,328.207
		c0,1.978-1.6,3.573-3.571,3.573h-24.001c-1.975,0-3.571-1.595-3.571-3.573v-22.108c0-1.971,1.596-3.572,3.571-3.572h24.001
		c1.971,0,3.571,1.601,3.571,3.572V328.207z"/>
	<path fill="#EBEBEB" stroke="#F2F2F2" stroke-width="0.25" stroke-linejoin="round" d="M484.444,328.207
		c0,1.978-1.6,3.573-3.574,3.573h-23.998c-1.975,0-3.574-1.595-3.574-3.573v-22.108c0-1.971,1.6-3.572,3.574-3.572h23.998
		c1.975,0,3.574,1.601,3.574,3.572V328.207z"/>
	<path fill="#EBEBEB" stroke="#F2F2F2" stroke-width="0.25" stroke-linejoin="round" d="M519.993,328.207
		c0,1.978-1.6,3.573-3.574,3.573h-24.001c-1.971,0-3.571-1.595-3.571-3.573v-22.108c0-1.971,1.6-3.572,3.571-3.572h24.001
		c1.975,0,3.574,1.601,3.574,3.572V328.207z"/>
	<path fill="#EBEBEB" stroke="#F2F2F2" stroke-width="0.25" stroke-linejoin="round" d="M555.539,328.207
		c0,1.978-1.6,3.573-3.571,3.573h-24.001c-1.975,0-3.571-1.595-3.571-3.573v-22.108c0-1.971,1.596-3.572,3.571-3.572h24.001
		c1.971,0,3.571,1.601,3.571,3.572V328.207z"/>
	<path fill="#EBEBEB" stroke="#F2F2F2" stroke-width="0.25" stroke-linejoin="round" d="M216.508,362.993
		c0,1.978-1.6,3.572-3.574,3.572h-24.001c-1.975,0-3.571-1.595-3.571-3.572v-22.108c0-1.971,1.596-3.572,3.571-3.572h24.001
		c1.975,0,3.574,1.601,3.574,3.572V362.993z"/>
	<path fill="#EBEBEB" stroke="#F2F2F2" stroke-width="0.25" stroke-linejoin="round" d="M252.054,362.993
		c0,1.978-1.6,3.572-3.571,3.572h-24.001c-1.975,0-3.571-1.595-3.571-3.572v-22.108c0-1.971,1.596-3.572,3.571-3.572h24.001
		c1.971,0,3.571,1.601,3.571,3.572V362.993z"/>
	<path fill="#EBEBEB" stroke="#F2F2F2" stroke-width="0.25" stroke-linejoin="round" d="M287.603,362.993
		c0,1.978-1.6,3.572-3.574,3.572h-23.998c-1.975,0-3.574-1.595-3.574-3.572v-22.108c0-1.971,1.6-3.572,3.574-3.572h23.998
		c1.975,0,3.574,1.601,3.574,3.572V362.993z"/>
	<path fill="#EBEBEB" stroke="#F2F2F2" stroke-width="0.25" stroke-linejoin="round" d="M323.153,362.993
		c0,1.978-1.6,3.572-3.574,3.572h-24.001c-1.971,0-3.571-1.595-3.571-3.572v-22.108c0-1.971,1.6-3.572,3.571-3.572h24.001
		c1.975,0,3.574,1.601,3.574,3.572V362.993z"/>
	<path fill="#EBEBEB" stroke="#F2F2F2" stroke-width="0.25" stroke-linejoin="round" d="M358.703,362.993
		c0,1.978-1.6,3.572-3.574,3.572h-24.001c-1.974,0-3.571-1.595-3.571-3.572v-22.108c0-1.971,1.596-3.572,3.571-3.572h24.001
		c1.975,0,3.574,1.601,3.574,3.572V362.993z"/>
	<path fill="#EBEBEB" stroke="#F2F2F2" stroke-width="0.25" stroke-linejoin="round" d="M394.249,362.993
		c0,1.978-1.6,3.572-3.571,3.572h-24.001c-1.975,0-3.571-1.595-3.571-3.572v-22.108c0-1.971,1.596-3.572,3.571-3.572h24.001
		c1.971,0,3.571,1.601,3.571,3.572V362.993z"/>
	<path fill="#EBEBEB" stroke="#F2F2F2" stroke-width="0.25" stroke-linejoin="round" d="M429.798,362.993
		c0,1.978-1.6,3.572-3.574,3.572h-23.998c-1.975,0-3.574-1.595-3.574-3.572v-22.108c0-1.971,1.6-3.572,3.574-3.572h23.998
		c1.975,0,3.574,1.601,3.574,3.572V362.993z"/>
	<path fill="#EBEBEB" stroke="#F2F2F2" stroke-width="0.25" stroke-linejoin="round" d="M465.348,362.993
		c0,1.978-1.6,3.572-3.574,3.572h-24.001c-1.971,0-3.571-1.595-3.571-3.572v-22.108c0-1.971,1.6-3.572,3.571-3.572h24.001
		c1.975,0,3.574,1.601,3.574,3.572V362.993z"/>
	<path fill="#EBEBEB" stroke="#F2F2F2" stroke-width="0.25" stroke-linejoin="round" d="M500.897,362.993
		c0,1.978-1.6,3.572-3.574,3.572h-24.001c-1.975,0-3.571-1.595-3.571-3.572v-22.108c0-1.971,1.596-3.572,3.571-3.572h24.001
		c1.975,0,3.574,1.601,3.574,3.572V362.993z"/>
	<path fill="#EBEBEB" stroke="#F2F2F2" stroke-width="0.25" stroke-linejoin="round" d="M536.444,362.993
		c0,1.978-1.6,3.572-3.574,3.572h-23.998c-1.975,0-3.571-1.595-3.571-3.572v-22.108c0-1.971,1.596-3.572,3.571-3.572h23.998
		c1.975,0,3.574,1.601,3.574,3.572V362.993z"/>
	<path fill="#EBEBEB" stroke="#F2F2F2" stroke-width="0.25" stroke-linejoin="round" d="M666.66,258.635
		c0,1.978-1.6,3.573-3.574,3.573h-24.001c-1.975,0-3.571-1.595-3.571-3.573v-22.108c0-1.971,1.596-3.572,3.571-3.572h24.001
		c1.975,0,3.574,1.601,3.574,3.572V258.635z"/>
	<path fill="#EBEBEB" stroke="#F2F2F2" stroke-width="0.25" stroke-linejoin="round" d="M702.206,258.635
		c0,1.978-1.6,3.573-3.571,3.573h-24.001c-1.974,0-3.571-1.595-3.571-3.573v-22.108c0-1.971,1.596-3.572,3.571-3.572h24.001
		c1.971,0,3.571,1.601,3.571,3.572V258.635z"/>
	<path fill="#EBEBEB" stroke="#F2F2F2" stroke-width="0.25" stroke-linejoin="round" d="M737.756,258.635
		c0,1.978-1.6,3.573-3.574,3.573h-23.998c-1.975,0-3.574-1.595-3.574-3.573v-22.108c0-1.971,1.6-3.572,3.574-3.572h23.998
		c1.975,0,3.574,1.601,3.574,3.572V258.635z"/>
	<path fill="#EBEBEB" stroke="#F2F2F2" stroke-width="0.25" stroke-linejoin="round" d="M666.66,293.421
		c0,1.978-1.6,3.572-3.574,3.572h-24.001c-1.975,0-3.571-1.595-3.571-3.572v-22.108c0-1.971,1.596-3.572,3.571-3.572h24.001
		c1.975,0,3.574,1.601,3.574,3.572V293.421z"/>
	<path fill="#EBEBEB" stroke="#F2F2F2" stroke-width="0.25" stroke-linejoin="round" d="M702.206,293.421
		c0,1.978-1.6,3.572-3.571,3.572h-24.001c-1.974,0-3.571-1.595-3.571-3.572v-22.108c0-1.971,1.596-3.572,3.571-3.572h24.001
		c1.971,0,3.571,1.601,3.571,3.572V293.421z"/>
	<path fill="#EBEBEB" stroke="#F2F2F2" stroke-width="0.25" stroke-linejoin="round" d="M737.756,293.421
		c0,1.978-1.6,3.572-3.574,3.572h-23.998c-1.975,0-3.574-1.595-3.574-3.572v-22.108c0-1.971,1.6-3.572,3.574-3.572h23.998
		c1.975,0,3.574,1.601,3.574,3.572V293.421z"/>
	<path fill="#EBEBEB" stroke="#F2F2F2" stroke-width="0.25" stroke-linejoin="round" d="M666.66,402.622
		c0,1.978-1.6,3.572-3.574,3.572h-24.001c-1.975,0-3.571-1.595-3.571-3.572v-22.108c0-1.971,1.596-3.572,3.571-3.572h24.001
		c1.975,0,3.574,1.601,3.574,3.572V402.622z"/>
	<path fill="#EBEBEB" stroke="#F2F2F2" stroke-width="0.25" stroke-linejoin="round" d="M702.206,402.622
		c0,1.978-1.6,3.572-3.571,3.572h-24.001c-1.974,0-3.571-1.595-3.571-3.572v-22.108c0-1.971,1.596-3.572,3.571-3.572h24.001
		c1.971,0,3.571,1.601,3.571,3.572V402.622z"/>
	<path fill="#EBEBEB" stroke="#F2F2F2" stroke-width="0.25" stroke-linejoin="round" d="M737.756,402.622
		c0,1.978-1.6,3.572-3.574,3.572h-23.998c-1.975,0-3.574-1.595-3.574-3.572v-22.108c0-1.971,1.6-3.572,3.574-3.572h23.998
		c1.975,0,3.574,1.601,3.574,3.572V402.622z"/>
	<path fill="#EBEBEB" stroke="#F2F2F2" stroke-width="0.25" stroke-linejoin="round" d="M702.206,367.897
		c0,1.978-1.6,3.573-3.571,3.573h-24.001c-1.974,0-3.571-1.595-3.571-3.573v-22.107c0-1.971,1.596-3.572,3.571-3.572h24.001
		c1.971,0,3.571,1.601,3.571,3.572V367.897z"/>
	<path fill="#EBEBEB" stroke="#F2F2F2" stroke-width="0.25" stroke-linejoin="round" d="M166.156,328.207
		c0,1.978-1.6,3.573-3.571,3.573H111.39c-1.975,0-3.571-1.595-3.571-3.573v-22.108c0-1.971,1.596-3.572,3.571-3.572h51.195
		c1.971,0,3.571,1.601,3.571,3.572V328.207z"/>
	<path fill="#EBEBEB" stroke="#F2F2F2" stroke-width="0.25" stroke-linejoin="round" d="M616.776,328.207
		c0,1.978-1.6,3.573-3.574,3.573H562.01c-1.975,0-3.574-1.595-3.574-3.573v-22.108c0-1.971,1.6-3.572,3.574-3.572h51.191
		c1.975,0,3.574,1.601,3.574,3.572V328.207z"/>
	<path fill="#EBEBEB" stroke="#F2F2F2" stroke-width="0.25" stroke-linejoin="round" d="M156.995,293.421
		c0,1.978-1.6,3.572-3.574,3.572H111.7c-1.975,0-3.574-1.595-3.574-3.572v-22.108c0-1.971,1.6-3.572,3.574-3.572h41.721
		c1.975,0,3.574,1.601,3.574,3.572V293.421z"/>
	<path fill="#EBEBEB" stroke="#F2F2F2" stroke-width="0.25" stroke-linejoin="round" d="M616.776,258.635
		c0,1.978-1.6,3.573-3.574,3.573h-41.721c-1.975,0-3.574-1.595-3.574-3.573v-22.108c0-1.971,1.6-3.572,3.574-3.572h41.721
		c1.975,0,3.574,1.601,3.574,3.572V258.635z"/>
	<g>
		<path fill="#EBEBEB" stroke="#F2F2F2" stroke-width="0.25" stroke-linejoin="round" d="M616.776,362.993
			c0,1.978-1.6,3.572-3.574,3.572h-68.309c-1.975,0-3.571-1.595-3.571-3.572v-22.108c0-1.971,1.596-3.572,3.571-3.572h68.309
			c1.975,0,3.574,1.601,3.574,3.572V362.993z"/>
	</g>
	<path fill="#EBEBEB" stroke="#F2F2F2" stroke-width="0.25" stroke-linejoin="round" d="M183.273,362.993
		c0,1.978-1.6,3.572-3.574,3.572H111.39c-1.975,0-3.571-1.595-3.571-3.572v-22.108c0-1.971,1.596-3.572,3.571-3.572h68.309
		c1.975,0,3.574,1.601,3.574,3.572V362.993z"/>
	<path fill="#EBEBEB" stroke="#F2F2F2" stroke-width="0.25" stroke-linejoin="round" d="M156.682,403.267
		c0,1.978-1.6,3.572-3.571,3.572H111.39c-1.975,0-3.571-1.595-3.571-3.572v-28.026c0-1.971,1.596-3.573,3.571-3.573h41.721
		c1.971,0,3.571,1.601,3.571,3.573V403.267z"/>
	<path fill="#EBEBEB" stroke="#F2F2F2" stroke-width="0.25" stroke-linejoin="round" d="M253.32,403.267
		c0,1.978-1.6,3.572-3.571,3.572h-41.718c-1.975,0-3.574-1.595-3.574-3.572v-28.026c0-1.971,1.6-3.573,3.574-3.573h41.718
		c1.971,0,3.571,1.601,3.571,3.573V403.267z"/>
	<path fill="#EBEBEB" stroke="#F2F2F2" stroke-width="0.25" stroke-linejoin="round" d="M466.191,403.267
		c0,1.978-1.6,3.572-3.571,3.572H261.022c-1.975,0-3.574-1.595-3.574-3.572v-28.026c0-1.971,1.6-3.573,3.574-3.573H462.62
		c1.971,0,3.571,1.601,3.571,3.573V403.267z"/>
	<path fill="#EBEBEB" stroke="#F2F2F2" stroke-width="0.25" stroke-linejoin="round" d="M200.935,403.267
		c0,1.978-1.6,3.572-3.574,3.572h-33.867c-1.975,0-3.571-1.595-3.571-3.572v-28.026c0-1.971,1.596-3.573,3.571-3.573h33.867
		c1.975,0,3.574,1.601,3.574,3.573V403.267z"/>
	<g>
		<path fill="#EBEBEB" stroke="#F2F2F2" stroke-width="0.25" stroke-linejoin="round" d="M616.776,403.267
			c0,1.978-1.6,3.572-3.574,3.572h-41.718c-1.975,0-3.571-1.595-3.571-3.572v-28.026c0-1.971,1.596-3.573,3.571-3.573h41.718
			c1.975,0,3.574,1.601,3.574,3.573V403.267z"/>
	</g>
	<path fill="#EBEBEB" stroke="#F2F2F2" stroke-width="0.25" stroke-linejoin="round" d="M821.828,403.267
		c0,1.978-1.6,3.572-3.571,3.572h-59.148c-1.975,0-3.571-1.595-3.571-3.572v-28.026c0-1.971,1.596-3.573,3.571-3.573h59.148
		c1.971,0,3.571,1.601,3.571,3.573V403.267z"/>
	<path fill="#EBEBEB" stroke="#F2F2F2" stroke-width="0.25" stroke-linejoin="round" d="M857.136,403.267
		c0,1.978-1.6,3.572-3.571,3.572h-23.279c-1.975,0-3.571-1.595-3.571-3.572v-28.026c0-1.971,1.596-3.573,3.571-3.573h23.279
		c1.971,0,3.571,1.601,3.571,3.573V403.267z"/>
	<path fill="#EBEBEB" stroke="#F2F2F2" stroke-width="0.25" stroke-linejoin="round" d="M892.51,404.093
		c0,1.978-1.6,3.572-3.571,3.572h-23.279c-1.975,0-3.571-1.594-3.571-3.572v-63.208c0-1.971,1.596-3.572,3.571-3.572h23.279
		c1.971,0,3.571,1.601,3.571,3.572V404.093z"/>
	<path fill="#EBEBEB" stroke="#F2F2F2" stroke-width="0.25" stroke-linejoin="round" d="M518.683,403.267
		c0,1.978-1.6,3.572-3.571,3.572h-41.718c-1.975,0-3.574-1.595-3.574-3.572v-28.026c0-1.971,1.6-3.573,3.574-3.573h41.718
		c1.971,0,3.571,1.601,3.571,3.573V403.267z"/>
	<path fill="#EBEBEB" stroke="#F2F2F2" stroke-width="0.25" stroke-linejoin="round" d="M563.214,403.267
		c0,1.978-1.6,3.572-3.574,3.572h-33.867c-1.975,0-3.571-1.595-3.571-3.572v-28.026c0-1.971,1.596-3.573,3.571-3.573h33.867
		c1.975,0,3.574,1.601,3.574,3.573V403.267z"/>
	<path fill="#EBEBEB" stroke="#F2F2F2" stroke-width="0.25" stroke-linejoin="round" d="M787.534,259.66
		c0,1.978-1.6,3.572-3.574,3.572h-24.001c-1.971,0-3.571-1.595-3.571-3.572v-22.108c0-1.971,1.6-3.572,3.571-3.572h24.001
		c1.975,0,3.574,1.601,3.574,3.572V259.66z"/>
	<path fill="#EBEBEB" stroke="#F2F2F2" stroke-width="0.25" stroke-linejoin="round" d="M823.083,259.66
		c0,1.978-1.6,3.572-3.574,3.572h-24.001c-1.975,0-3.571-1.595-3.571-3.572v-22.108c0-1.971,1.596-3.572,3.571-3.572h24.001
		c1.974,0,3.574,1.601,3.574,3.572V259.66z"/>
	<path fill="#EBEBEB" stroke="#F2F2F2" stroke-width="0.25" stroke-linejoin="round" d="M858.629,259.66
		c0,1.978-1.6,3.572-3.571,3.572h-24.001c-1.975,0-3.571-1.595-3.571-3.572v-22.108c0-1.971,1.596-3.572,3.571-3.572h24.001
		c1.971,0,3.571,1.601,3.571,3.572V259.66z"/>
	<path fill="#EBEBEB" stroke="#F2F2F2" stroke-width="0.25" stroke-linejoin="round" d="M894.179,259.66
		c0,1.978-1.6,3.572-3.574,3.572h-23.998c-1.975,0-3.574-1.595-3.574-3.572v-22.108c0-1.971,1.6-3.572,3.574-3.572h23.998
		c1.975,0,3.574,1.601,3.574,3.572V259.66z"/>
	<path fill="#EBEBEB" stroke="#F2F2F2" stroke-width="0.25" stroke-linejoin="round" d="M787.534,293.421
		c0,1.978-1.6,3.572-3.574,3.572h-24.001c-1.971,0-3.571-1.595-3.571-3.572v-22.108c0-1.971,1.6-3.572,3.571-3.572h24.001
		c1.975,0,3.574,1.601,3.574,3.572V293.421z"/>
	<path fill="#EBEBEB" stroke="#F2F2F2" stroke-width="0.25" stroke-linejoin="round" d="M823.083,293.421
		c0,1.978-1.6,3.572-3.574,3.572h-24.001c-1.975,0-3.571-1.595-3.571-3.572v-22.108c0-1.971,1.596-3.572,3.571-3.572h24.001
		c1.974,0,3.574,1.601,3.574,3.572V293.421z"/>
	<path fill="#EBEBEB" stroke="#F2F2F2" stroke-width="0.25" stroke-linejoin="round" d="M858.629,293.421
		c0,1.978-1.6,3.572-3.571,3.572h-24.001c-1.975,0-3.571-1.595-3.571-3.572v-22.108c0-1.971,1.596-3.572,3.571-3.572h24.001
		c1.971,0,3.571,1.601,3.571,3.572V293.421z"/>
	<path fill="#EBEBEB" stroke="#F2F2F2" stroke-width="0.25" stroke-linejoin="round" d="M894.179,293.421
		c0,1.978-1.6,3.572-3.574,3.572h-23.998c-1.975,0-3.574-1.595-3.574-3.572v-22.108c0-1.971,1.6-3.572,3.574-3.572h23.998
		c1.975,0,3.574,1.601,3.574,3.572V293.421z"/>
	<path fill="#EBEBEB" stroke="#F2F2F2" stroke-width="0.25" stroke-linejoin="round" d="M787.534,328.207
		c0,1.978-1.6,3.573-3.574,3.573h-24.001c-1.971,0-3.571-1.595-3.571-3.573v-22.108c0-1.971,1.6-3.572,3.571-3.572h24.001
		c1.975,0,3.574,1.601,3.574,3.572V328.207z"/>
	<path fill="#EBEBEB" stroke="#F2F2F2" stroke-width="0.25" stroke-linejoin="round" d="M823.083,328.207
		c0,1.978-1.6,3.573-3.574,3.573h-24.001c-1.975,0-3.571-1.595-3.571-3.573v-22.108c0-1.971,1.596-3.572,3.571-3.572h24.001
		c1.974,0,3.574,1.601,3.574,3.572V328.207z"/>
	<path fill="#EBEBEB" stroke="#F2F2F2" stroke-width="0.25" stroke-linejoin="round" d="M858.629,328.207
		c0,1.978-1.6,3.573-3.571,3.573h-24.001c-1.975,0-3.571-1.595-3.571-3.573v-22.108c0-1.971,1.596-3.572,3.571-3.572h24.001
		c1.971,0,3.571,1.601,3.571,3.572V328.207z"/>
	<path fill="#EBEBEB" stroke="#F2F2F2" stroke-width="0.25" stroke-linejoin="round" d="M787.534,362.993
		c0,1.978-1.6,3.572-3.574,3.572h-24.001c-1.971,0-3.571-1.595-3.571-3.572v-22.108c0-1.971,1.6-3.572,3.571-3.572h24.001
		c1.975,0,3.574,1.601,3.574,3.572V362.993z"/>
	<path fill="#EBEBEB" stroke="#F2F2F2" stroke-width="0.25" stroke-linejoin="round" d="M823.083,362.993
		c0,1.978-1.6,3.572-3.574,3.572h-24.001c-1.975,0-3.571-1.595-3.571-3.572v-22.108c0-1.971,1.596-3.572,3.571-3.572h24.001
		c1.974,0,3.574,1.601,3.574,3.572V362.993z"/>
	<path fill="#EBEBEB" stroke="#F2F2F2" stroke-width="0.25" stroke-linejoin="round" d="M858.629,362.993
		c0,1.978-1.6,3.572-3.571,3.572h-24.001c-1.975,0-3.571-1.595-3.571-3.572v-22.108c0-1.971,1.596-3.572,3.571-3.572h24.001
		c1.971,0,3.571,1.601,3.571,3.572V362.993z"/>
	<path fill="#EBEBEB" stroke="#F2F2F2" stroke-width="0.25" stroke-linejoin="round" d="M894.179,328.207
		c0,1.978-1.6,3.573-3.574,3.573h-23.998c-1.975,0-3.574-1.595-3.574-3.573v-22.108c0-1.971,1.6-3.572,3.574-3.572h23.998
		c1.975,0,3.574,1.601,3.574,3.572V328.207z"/>
	<polygon fill="#F1F1F2" points="660.323,281.668 659.539,282.494 658.748,281.668 658.432,281.983 659.24,282.812 658.432,283.629 
		658.748,283.947 659.539,283.125 660.323,283.947 660.64,283.629 659.849,282.812 660.64,281.983 	"/>
	<path fill="#EBEBEB" stroke="#F2F2F2" stroke-width="0.25" stroke-linejoin="round" d="M616.776,293.421
		c0,1.978-1.6,3.572-3.574,3.572H589.2c-1.975,0-3.571-1.595-3.571-3.572v-22.108c0-1.971,1.596-3.572,3.571-3.572h24.001
		c1.975,0,3.574,1.601,3.574,3.572V293.421z"/>
	<path fill="#FFFFFF" d="M288.605,326.509v-0.757h4.534v0.757H288.605z"/>
	<path fill="#FFFFFF" d="M395.618,326.509v-0.757h4.534v0.757H395.618z"/>
	<path fill="#FFFFFF" d="M805.511,326.509v-0.757h4.534v0.757H805.511z"/>
</g>
</svg>
