<?xml version="1.0" encoding="utf-8"?>
<!-- Generator: Adobe Illustrator 17.0.0, SVG Export Plug-In . SVG Version: 6.00 Build 0)  -->
<!DOCTYPE svg PUBLIC "-//W3C//DTD SVG 1.1//EN" "http://www.w3.org/Graphics/SVG/1.1/DTD/svg11.dtd">
<svg version="1.1" id="Isolation_Mode" xmlns="http://www.w3.org/2000/svg" xmlns:xlink="http://www.w3.org/1999/xlink" x="0px"
	 y="0px" width="396px" height="103px" viewBox="0 0 396 103" enable-background="new 0 0 396 103" xml:space="preserve">
<g>
	<rect x="-3.657" y="34.503" fill="none" width="406.157" height="61.497"/>
	<text transform="matrix(1 0 0 1 -3.657 69.8785)" fill="#FFFFFF" font-family="'Lato-Regular'" font-size="48" letter-spacing="4">MOBILE  LEARN</text>
	<g>
		<defs>
			<rect id="SVGID_1_" y="83" width="382" height="20"/>
		</defs>
		<clipPath id="SVGID_2_">
			<use xlink:href="#SVGID_1_"  overflow="visible"/>
		</clipPath>
		
			<line clip-path="url(#SVGID_2_)" fill="none" stroke="#FFFFFF" stroke-miterlimit="10" x1="202.66" y1="111.352" x2="402.427" y2="-89.557"/>
		
			<line clip-path="url(#SVGID_2_)" fill="none" stroke="#FFFFFF" stroke-miterlimit="10" x1="208.422" y1="111.352" x2="408.19" y2="-89.557"/>
		
			<line clip-path="url(#SVGID_2_)" fill="none" stroke="#FFFFFF" stroke-miterlimit="10" x1="214.185" y1="111.352" x2="413.952" y2="-89.557"/>
		
			<line clip-path="url(#SVGID_2_)" fill="none" stroke="#FFFFFF" stroke-miterlimit="10" x1="219.947" y1="111.352" x2="419.715" y2="-89.557"/>
		
			<line clip-path="url(#SVGID_2_)" fill="none" stroke="#FFFFFF" stroke-miterlimit="10" x1="225.71" y1="111.352" x2="425.477" y2="-89.557"/>
		
			<line clip-path="url(#SVGID_2_)" fill="none" stroke="#FFFFFF" stroke-miterlimit="10" x1="231.472" y1="111.352" x2="431.24" y2="-89.557"/>
		
			<line clip-path="url(#SVGID_2_)" fill="none" stroke="#FFFFFF" stroke-miterlimit="10" x1="237.235" y1="111.352" x2="437.003" y2="-89.557"/>
		
			<line clip-path="url(#SVGID_2_)" fill="none" stroke="#FFFFFF" stroke-miterlimit="10" x1="242.997" y1="111.352" x2="442.765" y2="-89.557"/>
		
			<line clip-path="url(#SVGID_2_)" fill="none" stroke="#FFFFFF" stroke-miterlimit="10" x1="248.76" y1="111.352" x2="448.528" y2="-89.557"/>
		
			<line clip-path="url(#SVGID_2_)" fill="none" stroke="#FFFFFF" stroke-miterlimit="10" x1="254.523" y1="111.352" x2="454.29" y2="-89.557"/>
		
			<line clip-path="url(#SVGID_2_)" fill="none" stroke="#FFFFFF" stroke-miterlimit="10" x1="260.285" y1="111.352" x2="460.053" y2="-89.557"/>
		
			<line clip-path="url(#SVGID_2_)" fill="none" stroke="#FFFFFF" stroke-miterlimit="10" x1="266.048" y1="111.352" x2="465.815" y2="-89.557"/>
		
			<line clip-path="url(#SVGID_2_)" fill="none" stroke="#FFFFFF" stroke-miterlimit="10" x1="271.81" y1="111.352" x2="471.578" y2="-89.557"/>
		
			<line clip-path="url(#SVGID_2_)" fill="none" stroke="#FFFFFF" stroke-miterlimit="10" x1="277.573" y1="111.352" x2="477.34" y2="-89.557"/>
		
			<line clip-path="url(#SVGID_2_)" fill="none" stroke="#FFFFFF" stroke-miterlimit="10" x1="283.335" y1="111.352" x2="483.103" y2="-89.557"/>
		
			<line clip-path="url(#SVGID_2_)" fill="none" stroke="#FFFFFF" stroke-miterlimit="10" x1="289.098" y1="111.352" x2="488.865" y2="-89.557"/>
		
			<line clip-path="url(#SVGID_2_)" fill="none" stroke="#FFFFFF" stroke-miterlimit="10" x1="294.86" y1="111.352" x2="494.628" y2="-89.557"/>
		
			<line clip-path="url(#SVGID_2_)" fill="none" stroke="#FFFFFF" stroke-miterlimit="10" x1="300.623" y1="111.352" x2="500.39" y2="-89.557"/>
		
			<line clip-path="url(#SVGID_2_)" fill="none" stroke="#FFFFFF" stroke-miterlimit="10" x1="306.385" y1="111.352" x2="506.153" y2="-89.557"/>
		
			<line clip-path="url(#SVGID_2_)" fill="none" stroke="#FFFFFF" stroke-miterlimit="10" x1="312.148" y1="111.352" x2="511.915" y2="-89.557"/>
		
			<line clip-path="url(#SVGID_2_)" fill="none" stroke="#FFFFFF" stroke-miterlimit="10" x1="317.91" y1="111.352" x2="517.678" y2="-89.557"/>
		
			<line clip-path="url(#SVGID_2_)" fill="none" stroke="#FFFFFF" stroke-miterlimit="10" x1="323.673" y1="111.352" x2="523.44" y2="-89.557"/>
		
			<line clip-path="url(#SVGID_2_)" fill="none" stroke="#FFFFFF" stroke-miterlimit="10" x1="329.435" y1="111.352" x2="529.203" y2="-89.557"/>
		
			<line clip-path="url(#SVGID_2_)" fill="none" stroke="#FFFFFF" stroke-miterlimit="10" x1="335.198" y1="111.352" x2="534.965" y2="-89.557"/>
		
			<line clip-path="url(#SVGID_2_)" fill="none" stroke="#FFFFFF" stroke-miterlimit="10" x1="340.96" y1="111.352" x2="540.728" y2="-89.557"/>
		
			<line clip-path="url(#SVGID_2_)" fill="none" stroke="#FFFFFF" stroke-miterlimit="10" x1="346.723" y1="111.352" x2="546.49" y2="-89.557"/>
		
			<line clip-path="url(#SVGID_2_)" fill="none" stroke="#FFFFFF" stroke-miterlimit="10" x1="352.485" y1="111.352" x2="552.253" y2="-89.557"/>
		
			<line clip-path="url(#SVGID_2_)" fill="none" stroke="#FFFFFF" stroke-miterlimit="10" x1="358.248" y1="111.352" x2="558.016" y2="-89.557"/>
		
			<line clip-path="url(#SVGID_2_)" fill="none" stroke="#FFFFFF" stroke-miterlimit="10" x1="364.011" y1="111.352" x2="563.778" y2="-89.557"/>
		
			<line clip-path="url(#SVGID_2_)" fill="none" stroke="#FFFFFF" stroke-miterlimit="10" x1="369.773" y1="111.352" x2="569.541" y2="-89.557"/>
		
			<line clip-path="url(#SVGID_2_)" fill="none" stroke="#FFFFFF" stroke-miterlimit="10" x1="375.536" y1="111.352" x2="575.303" y2="-89.557"/>
		
			<line clip-path="url(#SVGID_2_)" fill="none" stroke="#FFFFFF" stroke-miterlimit="10" x1="-119.081" y1="261.068" x2="80.686" y2="60.159"/>
		
			<line clip-path="url(#SVGID_2_)" fill="none" stroke="#FFFFFF" stroke-miterlimit="10" x1="-113.319" y1="261.068" x2="86.449" y2="60.159"/>
		
			<line clip-path="url(#SVGID_2_)" fill="none" stroke="#FFFFFF" stroke-miterlimit="10" x1="-107.556" y1="261.068" x2="92.211" y2="60.159"/>
		
			<line clip-path="url(#SVGID_2_)" fill="none" stroke="#FFFFFF" stroke-miterlimit="10" x1="-101.794" y1="261.068" x2="97.974" y2="60.159"/>
		
			<line clip-path="url(#SVGID_2_)" fill="none" stroke="#FFFFFF" stroke-miterlimit="10" x1="-96.031" y1="261.068" x2="103.736" y2="60.159"/>
		
			<line clip-path="url(#SVGID_2_)" fill="none" stroke="#FFFFFF" stroke-miterlimit="10" x1="-90.269" y1="261.068" x2="109.499" y2="60.159"/>
		
			<line clip-path="url(#SVGID_2_)" fill="none" stroke="#FFFFFF" stroke-miterlimit="10" x1="-84.506" y1="261.068" x2="115.261" y2="60.159"/>
		
			<line clip-path="url(#SVGID_2_)" fill="none" stroke="#FFFFFF" stroke-miterlimit="10" x1="-78.744" y1="261.068" x2="121.024" y2="60.159"/>
		
			<line clip-path="url(#SVGID_2_)" fill="none" stroke="#FFFFFF" stroke-miterlimit="10" x1="-72.981" y1="261.068" x2="126.787" y2="60.159"/>
		
			<line clip-path="url(#SVGID_2_)" fill="none" stroke="#FFFFFF" stroke-miterlimit="10" x1="-67.218" y1="261.068" x2="132.549" y2="60.159"/>
		
			<line clip-path="url(#SVGID_2_)" fill="none" stroke="#FFFFFF" stroke-miterlimit="10" x1="-61.456" y1="261.068" x2="138.312" y2="60.159"/>
		
			<line clip-path="url(#SVGID_2_)" fill="none" stroke="#FFFFFF" stroke-miterlimit="10" x1="-55.693" y1="261.068" x2="144.074" y2="60.159"/>
		
			<line clip-path="url(#SVGID_2_)" fill="none" stroke="#FFFFFF" stroke-miterlimit="10" x1="-49.931" y1="261.068" x2="149.837" y2="60.159"/>
		
			<line clip-path="url(#SVGID_2_)" fill="none" stroke="#FFFFFF" stroke-miterlimit="10" x1="-44.168" y1="261.068" x2="155.599" y2="60.159"/>
		
			<line clip-path="url(#SVGID_2_)" fill="none" stroke="#FFFFFF" stroke-miterlimit="10" x1="-38.406" y1="261.068" x2="161.362" y2="60.159"/>
		
			<line clip-path="url(#SVGID_2_)" fill="none" stroke="#FFFFFF" stroke-miterlimit="10" x1="-32.643" y1="261.068" x2="167.124" y2="60.159"/>
		
			<line clip-path="url(#SVGID_2_)" fill="none" stroke="#FFFFFF" stroke-miterlimit="10" x1="-26.881" y1="261.068" x2="172.887" y2="60.159"/>
		
			<line clip-path="url(#SVGID_2_)" fill="none" stroke="#FFFFFF" stroke-miterlimit="10" x1="-21.118" y1="261.068" x2="178.649" y2="60.159"/>
		
			<line clip-path="url(#SVGID_2_)" fill="none" stroke="#FFFFFF" stroke-miterlimit="10" x1="-15.356" y1="261.068" x2="184.412" y2="60.159"/>
		
			<line clip-path="url(#SVGID_2_)" fill="none" stroke="#FFFFFF" stroke-miterlimit="10" x1="-9.593" y1="261.068" x2="190.174" y2="60.159"/>
		
			<line clip-path="url(#SVGID_2_)" fill="none" stroke="#FFFFFF" stroke-miterlimit="10" x1="-3.831" y1="261.068" x2="195.937" y2="60.159"/>
		
			<line clip-path="url(#SVGID_2_)" fill="none" stroke="#FFFFFF" stroke-miterlimit="10" x1="1.932" y1="261.068" x2="201.699" y2="60.159"/>
		
			<line clip-path="url(#SVGID_2_)" fill="none" stroke="#FFFFFF" stroke-miterlimit="10" x1="7.694" y1="261.068" x2="207.462" y2="60.159"/>
		
			<line clip-path="url(#SVGID_2_)" fill="none" stroke="#FFFFFF" stroke-miterlimit="10" x1="13.457" y1="261.068" x2="213.224" y2="60.159"/>
		
			<line clip-path="url(#SVGID_2_)" fill="none" stroke="#FFFFFF" stroke-miterlimit="10" x1="19.219" y1="261.068" x2="218.987" y2="60.159"/>
		
			<line clip-path="url(#SVGID_2_)" fill="none" stroke="#FFFFFF" stroke-miterlimit="10" x1="24.982" y1="261.068" x2="224.749" y2="60.159"/>
		
			<line clip-path="url(#SVGID_2_)" fill="none" stroke="#FFFFFF" stroke-miterlimit="10" x1="30.744" y1="261.068" x2="230.512" y2="60.159"/>
		
			<line clip-path="url(#SVGID_2_)" fill="none" stroke="#FFFFFF" stroke-miterlimit="10" x1="36.507" y1="261.068" x2="236.275" y2="60.159"/>
		
			<line clip-path="url(#SVGID_2_)" fill="none" stroke="#FFFFFF" stroke-miterlimit="10" x1="42.27" y1="261.068" x2="242.037" y2="60.159"/>
		
			<line clip-path="url(#SVGID_2_)" fill="none" stroke="#FFFFFF" stroke-miterlimit="10" x1="48.032" y1="261.068" x2="247.8" y2="60.159"/>
		
			<line clip-path="url(#SVGID_2_)" fill="none" stroke="#FFFFFF" stroke-miterlimit="10" x1="-196.875" y1="206.011" x2="2.892" y2="5.102"/>
		
			<line clip-path="url(#SVGID_2_)" fill="none" stroke="#FFFFFF" stroke-miterlimit="10" x1="-191.113" y1="206.011" x2="8.655" y2="5.102"/>
		
			<line clip-path="url(#SVGID_2_)" fill="none" stroke="#FFFFFF" stroke-miterlimit="10" x1="-185.35" y1="206.011" x2="14.417" y2="5.102"/>
		
			<line clip-path="url(#SVGID_2_)" fill="none" stroke="#FFFFFF" stroke-miterlimit="10" x1="-179.588" y1="206.011" x2="20.18" y2="5.102"/>
		
			<line clip-path="url(#SVGID_2_)" fill="none" stroke="#FFFFFF" stroke-miterlimit="10" x1="-173.825" y1="206.011" x2="25.942" y2="5.102"/>
		
			<line clip-path="url(#SVGID_2_)" fill="none" stroke="#FFFFFF" stroke-miterlimit="10" x1="-168.063" y1="206.011" x2="31.705" y2="5.102"/>
		
			<line clip-path="url(#SVGID_2_)" fill="none" stroke="#FFFFFF" stroke-miterlimit="10" x1="-162.3" y1="206.011" x2="37.467" y2="5.102"/>
		
			<line clip-path="url(#SVGID_2_)" fill="none" stroke="#FFFFFF" stroke-miterlimit="10" x1="-156.538" y1="206.011" x2="43.23" y2="5.102"/>
		
			<line clip-path="url(#SVGID_2_)" fill="none" stroke="#FFFFFF" stroke-miterlimit="10" x1="-150.775" y1="206.011" x2="48.992" y2="5.102"/>
		
			<line clip-path="url(#SVGID_2_)" fill="none" stroke="#FFFFFF" stroke-miterlimit="10" x1="-145.013" y1="206.011" x2="54.755" y2="5.102"/>
		
			<line clip-path="url(#SVGID_2_)" fill="none" stroke="#FFFFFF" stroke-miterlimit="10" x1="-139.25" y1="206.011" x2="60.517" y2="5.102"/>
		
			<line clip-path="url(#SVGID_2_)" fill="none" stroke="#FFFFFF" stroke-miterlimit="10" x1="-133.488" y1="206.011" x2="66.28" y2="5.102"/>
		
			<line clip-path="url(#SVGID_2_)" fill="none" stroke="#FFFFFF" stroke-miterlimit="10" x1="-127.725" y1="206.011" x2="72.043" y2="5.102"/>
		
			<line clip-path="url(#SVGID_2_)" fill="none" stroke="#FFFFFF" stroke-miterlimit="10" x1="-121.962" y1="206.011" x2="77.805" y2="5.102"/>
		
			<line clip-path="url(#SVGID_2_)" fill="none" stroke="#FFFFFF" stroke-miterlimit="10" x1="-116.2" y1="206.011" x2="83.568" y2="5.102"/>
		
			<line clip-path="url(#SVGID_2_)" fill="none" stroke="#FFFFFF" stroke-miterlimit="10" x1="-110.437" y1="206.011" x2="89.33" y2="5.102"/>
		
			<line clip-path="url(#SVGID_2_)" fill="none" stroke="#FFFFFF" stroke-miterlimit="10" x1="-104.675" y1="206.011" x2="95.093" y2="5.102"/>
		
			<line clip-path="url(#SVGID_2_)" fill="none" stroke="#FFFFFF" stroke-miterlimit="10" x1="-98.912" y1="206.011" x2="100.855" y2="5.102"/>
		
			<line clip-path="url(#SVGID_2_)" fill="none" stroke="#FFFFFF" stroke-miterlimit="10" x1="-93.15" y1="206.011" x2="106.618" y2="5.102"/>
		
			<line clip-path="url(#SVGID_2_)" fill="none" stroke="#FFFFFF" stroke-miterlimit="10" x1="-87.387" y1="206.011" x2="112.38" y2="5.102"/>
		
			<line clip-path="url(#SVGID_2_)" fill="none" stroke="#FFFFFF" stroke-miterlimit="10" x1="-81.625" y1="206.011" x2="118.143" y2="5.102"/>
		
			<line clip-path="url(#SVGID_2_)" fill="none" stroke="#FFFFFF" stroke-miterlimit="10" x1="-75.862" y1="206.011" x2="123.905" y2="5.102"/>
		
			<line clip-path="url(#SVGID_2_)" fill="none" stroke="#FFFFFF" stroke-miterlimit="10" x1="-70.1" y1="206.011" x2="129.668" y2="5.102"/>
		
			<line clip-path="url(#SVGID_2_)" fill="none" stroke="#FFFFFF" stroke-miterlimit="10" x1="-64.337" y1="206.011" x2="135.43" y2="5.102"/>
		
			<line clip-path="url(#SVGID_2_)" fill="none" stroke="#FFFFFF" stroke-miterlimit="10" x1="-58.575" y1="206.011" x2="141.193" y2="5.102"/>
		
			<line clip-path="url(#SVGID_2_)" fill="none" stroke="#FFFFFF" stroke-miterlimit="10" x1="-52.812" y1="206.011" x2="146.955" y2="5.102"/>
		
			<line clip-path="url(#SVGID_2_)" fill="none" stroke="#FFFFFF" stroke-miterlimit="10" x1="-47.05" y1="206.011" x2="152.718" y2="5.102"/>
		
			<line clip-path="url(#SVGID_2_)" fill="none" stroke="#FFFFFF" stroke-miterlimit="10" x1="-41.287" y1="206.011" x2="158.48" y2="5.102"/>
		
			<line clip-path="url(#SVGID_2_)" fill="none" stroke="#FFFFFF" stroke-miterlimit="10" x1="-35.525" y1="206.011" x2="164.243" y2="5.102"/>
		
			<line clip-path="url(#SVGID_2_)" fill="none" stroke="#FFFFFF" stroke-miterlimit="10" x1="-29.762" y1="206.011" x2="170.005" y2="5.102"/>
		
			<line clip-path="url(#SVGID_2_)" fill="none" stroke="#FFFFFF" stroke-miterlimit="10" x1="-24" y1="206.011" x2="175.768" y2="5.102"/>
	</g>
	<g>
		<defs>
			<rect id="SVGID_3_" width="383" height="20"/>
		</defs>
		<clipPath id="SVGID_4_">
			<use xlink:href="#SVGID_3_"  overflow="visible"/>
		</clipPath>
		
			<line clip-path="url(#SVGID_4_)" fill="none" stroke="#FFFFFF" stroke-miterlimit="10" x1="202.856" y1="28.37" x2="402.817" y2="-172.733"/>
		
			<line clip-path="url(#SVGID_4_)" fill="none" stroke="#FFFFFF" stroke-miterlimit="10" x1="208.624" y1="28.37" x2="408.585" y2="-172.733"/>
		
			<line clip-path="url(#SVGID_4_)" fill="none" stroke="#FFFFFF" stroke-miterlimit="10" x1="214.392" y1="28.37" x2="414.353" y2="-172.733"/>
		
			<line clip-path="url(#SVGID_4_)" fill="none" stroke="#FFFFFF" stroke-miterlimit="10" x1="220.16" y1="28.37" x2="420.121" y2="-172.733"/>
		
			<line clip-path="url(#SVGID_4_)" fill="none" stroke="#FFFFFF" stroke-miterlimit="10" x1="225.928" y1="28.37" x2="425.889" y2="-172.733"/>
		
			<line clip-path="url(#SVGID_4_)" fill="none" stroke="#FFFFFF" stroke-miterlimit="10" x1="231.696" y1="28.37" x2="431.657" y2="-172.733"/>
		
			<line clip-path="url(#SVGID_4_)" fill="none" stroke="#FFFFFF" stroke-miterlimit="10" x1="237.464" y1="28.37" x2="437.425" y2="-172.733"/>
		
			<line clip-path="url(#SVGID_4_)" fill="none" stroke="#FFFFFF" stroke-miterlimit="10" x1="243.232" y1="28.37" x2="443.193" y2="-172.733"/>
		
			<line clip-path="url(#SVGID_4_)" fill="none" stroke="#FFFFFF" stroke-miterlimit="10" x1="249.001" y1="28.37" x2="448.961" y2="-172.733"/>
		
			<line clip-path="url(#SVGID_4_)" fill="none" stroke="#FFFFFF" stroke-miterlimit="10" x1="254.769" y1="28.37" x2="454.729" y2="-172.733"/>
		
			<line clip-path="url(#SVGID_4_)" fill="none" stroke="#FFFFFF" stroke-miterlimit="10" x1="260.537" y1="28.37" x2="460.498" y2="-172.733"/>
		
			<line clip-path="url(#SVGID_4_)" fill="none" stroke="#FFFFFF" stroke-miterlimit="10" x1="266.305" y1="28.37" x2="466.266" y2="-172.733"/>
		
			<line clip-path="url(#SVGID_4_)" fill="none" stroke="#FFFFFF" stroke-miterlimit="10" x1="272.073" y1="28.37" x2="472.034" y2="-172.733"/>
		
			<line clip-path="url(#SVGID_4_)" fill="none" stroke="#FFFFFF" stroke-miterlimit="10" x1="277.841" y1="28.37" x2="477.802" y2="-172.733"/>
		
			<line clip-path="url(#SVGID_4_)" fill="none" stroke="#FFFFFF" stroke-miterlimit="10" x1="283.609" y1="28.37" x2="483.57" y2="-172.733"/>
		
			<line clip-path="url(#SVGID_4_)" fill="none" stroke="#FFFFFF" stroke-miterlimit="10" x1="289.377" y1="28.37" x2="489.338" y2="-172.733"/>
		
			<line clip-path="url(#SVGID_4_)" fill="none" stroke="#FFFFFF" stroke-miterlimit="10" x1="295.145" y1="28.37" x2="495.106" y2="-172.733"/>
		
			<line clip-path="url(#SVGID_4_)" fill="none" stroke="#FFFFFF" stroke-miterlimit="10" x1="300.913" y1="28.37" x2="500.874" y2="-172.733"/>
		
			<line clip-path="url(#SVGID_4_)" fill="none" stroke="#FFFFFF" stroke-miterlimit="10" x1="306.682" y1="28.37" x2="506.642" y2="-172.733"/>
		
			<line clip-path="url(#SVGID_4_)" fill="none" stroke="#FFFFFF" stroke-miterlimit="10" x1="312.45" y1="28.37" x2="512.41" y2="-172.733"/>
		
			<line clip-path="url(#SVGID_4_)" fill="none" stroke="#FFFFFF" stroke-miterlimit="10" x1="318.218" y1="28.37" x2="518.179" y2="-172.733"/>
		
			<line clip-path="url(#SVGID_4_)" fill="none" stroke="#FFFFFF" stroke-miterlimit="10" x1="323.986" y1="28.37" x2="523.947" y2="-172.733"/>
		
			<line clip-path="url(#SVGID_4_)" fill="none" stroke="#FFFFFF" stroke-miterlimit="10" x1="329.754" y1="28.37" x2="529.715" y2="-172.733"/>
		
			<line clip-path="url(#SVGID_4_)" fill="none" stroke="#FFFFFF" stroke-miterlimit="10" x1="335.522" y1="28.37" x2="535.483" y2="-172.733"/>
		
			<line clip-path="url(#SVGID_4_)" fill="none" stroke="#FFFFFF" stroke-miterlimit="10" x1="341.29" y1="28.37" x2="541.251" y2="-172.733"/>
		
			<line clip-path="url(#SVGID_4_)" fill="none" stroke="#FFFFFF" stroke-miterlimit="10" x1="347.058" y1="28.37" x2="547.019" y2="-172.733"/>
		
			<line clip-path="url(#SVGID_4_)" fill="none" stroke="#FFFFFF" stroke-miterlimit="10" x1="352.826" y1="28.37" x2="552.787" y2="-172.733"/>
		
			<line clip-path="url(#SVGID_4_)" fill="none" stroke="#FFFFFF" stroke-miterlimit="10" x1="358.594" y1="28.37" x2="558.555" y2="-172.733"/>
		
			<line clip-path="url(#SVGID_4_)" fill="none" stroke="#FFFFFF" stroke-miterlimit="10" x1="364.363" y1="28.37" x2="564.323" y2="-172.733"/>
		
			<line clip-path="url(#SVGID_4_)" fill="none" stroke="#FFFFFF" stroke-miterlimit="10" x1="370.131" y1="28.37" x2="570.091" y2="-172.733"/>
		
			<line clip-path="url(#SVGID_4_)" fill="none" stroke="#FFFFFF" stroke-miterlimit="10" x1="375.899" y1="28.37" x2="575.859" y2="-172.733"/>
		
			<line clip-path="url(#SVGID_4_)" fill="none" stroke="#FFFFFF" stroke-miterlimit="10" x1="-119.196" y1="178.231" x2="80.764" y2="-22.873"/>
		
			<line clip-path="url(#SVGID_4_)" fill="none" stroke="#FFFFFF" stroke-miterlimit="10" x1="-113.428" y1="178.231" x2="86.532" y2="-22.873"/>
		
			<line clip-path="url(#SVGID_4_)" fill="none" stroke="#FFFFFF" stroke-miterlimit="10" x1="-107.66" y1="178.231" x2="92.301" y2="-22.873"/>
		
			<line clip-path="url(#SVGID_4_)" fill="none" stroke="#FFFFFF" stroke-miterlimit="10" x1="-101.892" y1="178.231" x2="98.069" y2="-22.873"/>
		
			<line clip-path="url(#SVGID_4_)" fill="none" stroke="#FFFFFF" stroke-miterlimit="10" x1="-96.124" y1="178.231" x2="103.837" y2="-22.873"/>
		
			<line clip-path="url(#SVGID_4_)" fill="none" stroke="#FFFFFF" stroke-miterlimit="10" x1="-90.356" y1="178.231" x2="109.605" y2="-22.873"/>
		
			<line clip-path="url(#SVGID_4_)" fill="none" stroke="#FFFFFF" stroke-miterlimit="10" x1="-84.588" y1="178.231" x2="115.373" y2="-22.873"/>
		
			<line clip-path="url(#SVGID_4_)" fill="none" stroke="#FFFFFF" stroke-miterlimit="10" x1="-78.82" y1="178.231" x2="121.141" y2="-22.873"/>
		
			<line clip-path="url(#SVGID_4_)" fill="none" stroke="#FFFFFF" stroke-miterlimit="10" x1="-73.052" y1="178.231" x2="126.909" y2="-22.873"/>
		
			<line clip-path="url(#SVGID_4_)" fill="none" stroke="#FFFFFF" stroke-miterlimit="10" x1="-67.283" y1="178.231" x2="132.677" y2="-22.873"/>
		
			<line clip-path="url(#SVGID_4_)" fill="none" stroke="#FFFFFF" stroke-miterlimit="10" x1="-61.515" y1="178.231" x2="138.445" y2="-22.873"/>
		
			<line clip-path="url(#SVGID_4_)" fill="none" stroke="#FFFFFF" stroke-miterlimit="10" x1="-55.747" y1="178.231" x2="144.213" y2="-22.873"/>
		
			<line clip-path="url(#SVGID_4_)" fill="none" stroke="#FFFFFF" stroke-miterlimit="10" x1="-49.979" y1="178.231" x2="149.982" y2="-22.873"/>
		
			<line clip-path="url(#SVGID_4_)" fill="none" stroke="#FFFFFF" stroke-miterlimit="10" x1="-44.211" y1="178.231" x2="155.75" y2="-22.873"/>
		
			<line clip-path="url(#SVGID_4_)" fill="none" stroke="#FFFFFF" stroke-miterlimit="10" x1="-38.443" y1="178.231" x2="161.518" y2="-22.873"/>
		
			<line clip-path="url(#SVGID_4_)" fill="none" stroke="#FFFFFF" stroke-miterlimit="10" x1="-32.675" y1="178.231" x2="167.286" y2="-22.873"/>
		
			<line clip-path="url(#SVGID_4_)" fill="none" stroke="#FFFFFF" stroke-miterlimit="10" x1="-26.907" y1="178.231" x2="173.054" y2="-22.873"/>
		
			<line clip-path="url(#SVGID_4_)" fill="none" stroke="#FFFFFF" stroke-miterlimit="10" x1="-21.139" y1="178.231" x2="178.822" y2="-22.873"/>
		
			<line clip-path="url(#SVGID_4_)" fill="none" stroke="#FFFFFF" stroke-miterlimit="10" x1="-15.371" y1="178.231" x2="184.59" y2="-22.873"/>
		
			<line clip-path="url(#SVGID_4_)" fill="none" stroke="#FFFFFF" stroke-miterlimit="10" x1="-9.603" y1="178.231" x2="190.358" y2="-22.873"/>
		
			<line clip-path="url(#SVGID_4_)" fill="none" stroke="#FFFFFF" stroke-miterlimit="10" x1="-3.834" y1="178.231" x2="196.126" y2="-22.873"/>
		
			<line clip-path="url(#SVGID_4_)" fill="none" stroke="#FFFFFF" stroke-miterlimit="10" x1="1.934" y1="178.231" x2="201.894" y2="-22.873"/>
		
			<line clip-path="url(#SVGID_4_)" fill="none" stroke="#FFFFFF" stroke-miterlimit="10" x1="7.702" y1="178.231" x2="207.663" y2="-22.873"/>
		
			<line clip-path="url(#SVGID_4_)" fill="none" stroke="#FFFFFF" stroke-miterlimit="10" x1="13.47" y1="178.231" x2="213.431" y2="-22.873"/>
		
			<line clip-path="url(#SVGID_4_)" fill="none" stroke="#FFFFFF" stroke-miterlimit="10" x1="19.238" y1="178.231" x2="219.199" y2="-22.873"/>
		
			<line clip-path="url(#SVGID_4_)" fill="none" stroke="#FFFFFF" stroke-miterlimit="10" x1="25.006" y1="178.231" x2="224.967" y2="-22.873"/>
		
			<line clip-path="url(#SVGID_4_)" fill="none" stroke="#FFFFFF" stroke-miterlimit="10" x1="30.774" y1="178.231" x2="230.735" y2="-22.873"/>
		
			<line clip-path="url(#SVGID_4_)" fill="none" stroke="#FFFFFF" stroke-miterlimit="10" x1="36.542" y1="178.231" x2="236.503" y2="-22.873"/>
		
			<line clip-path="url(#SVGID_4_)" fill="none" stroke="#FFFFFF" stroke-miterlimit="10" x1="42.31" y1="178.231" x2="242.271" y2="-22.873"/>
		
			<line clip-path="url(#SVGID_4_)" fill="none" stroke="#FFFFFF" stroke-miterlimit="10" x1="48.078" y1="178.231" x2="248.039" y2="-22.873"/>
		
			<line clip-path="url(#SVGID_4_)" fill="none" stroke="#FFFFFF" stroke-miterlimit="10" x1="53.847" y1="178.231" x2="253.807" y2="-22.873"/>
		
			<line clip-path="url(#SVGID_4_)" fill="none" stroke="#E0E0E0" stroke-miterlimit="10" x1="-197.066" y1="123.121" x2="2.895" y2="-77.983"/>
		
			<line clip-path="url(#SVGID_4_)" fill="none" stroke="#E0E0E0" stroke-miterlimit="10" x1="-191.298" y1="123.121" x2="8.663" y2="-77.983"/>
		
			<line clip-path="url(#SVGID_4_)" fill="none" stroke="#E0E0E0" stroke-miterlimit="10" x1="-185.53" y1="123.121" x2="14.431" y2="-77.983"/>
		
			<line clip-path="url(#SVGID_4_)" fill="none" stroke="#E0E0E0" stroke-miterlimit="10" x1="-179.761" y1="123.121" x2="20.199" y2="-77.983"/>
		
			<line clip-path="url(#SVGID_4_)" fill="none" stroke="#E0E0E0" stroke-miterlimit="10" x1="-173.993" y1="123.121" x2="25.967" y2="-77.983"/>
		
			<line clip-path="url(#SVGID_4_)" fill="none" stroke="#E0E0E0" stroke-miterlimit="10" x1="-168.225" y1="123.121" x2="31.736" y2="-77.983"/>
		
			<line clip-path="url(#SVGID_4_)" fill="none" stroke="#E0E0E0" stroke-miterlimit="10" x1="-162.457" y1="123.121" x2="37.504" y2="-77.983"/>
		
			<line clip-path="url(#SVGID_4_)" fill="none" stroke="#FFFFFF" stroke-miterlimit="10" x1="-156.689" y1="123.121" x2="43.272" y2="-77.983"/>
		
			<line clip-path="url(#SVGID_4_)" fill="none" stroke="#FFFFFF" stroke-miterlimit="10" x1="-150.921" y1="123.121" x2="49.04" y2="-77.983"/>
		
			<line clip-path="url(#SVGID_4_)" fill="none" stroke="#FFFFFF" stroke-miterlimit="10" x1="-145.153" y1="123.121" x2="54.808" y2="-77.983"/>
		
			<line clip-path="url(#SVGID_4_)" fill="none" stroke="#FFFFFF" stroke-miterlimit="10" x1="-139.385" y1="123.121" x2="60.576" y2="-77.983"/>
		
			<line clip-path="url(#SVGID_4_)" fill="none" stroke="#FFFFFF" stroke-miterlimit="10" x1="-133.617" y1="123.121" x2="66.344" y2="-77.983"/>
		
			<line clip-path="url(#SVGID_4_)" fill="none" stroke="#FFFFFF" stroke-miterlimit="10" x1="-127.849" y1="123.121" x2="72.112" y2="-77.983"/>
		
			<line clip-path="url(#SVGID_4_)" fill="none" stroke="#FFFFFF" stroke-miterlimit="10" x1="-122.08" y1="123.121" x2="77.88" y2="-77.983"/>
		
			<line clip-path="url(#SVGID_4_)" fill="none" stroke="#FFFFFF" stroke-miterlimit="10" x1="-116.312" y1="123.121" x2="83.648" y2="-77.983"/>
		
			<line clip-path="url(#SVGID_4_)" fill="none" stroke="#FFFFFF" stroke-miterlimit="10" x1="-110.544" y1="123.121" x2="89.417" y2="-77.983"/>
		
			<line clip-path="url(#SVGID_4_)" fill="none" stroke="#FFFFFF" stroke-miterlimit="10" x1="-104.776" y1="123.121" x2="95.185" y2="-77.983"/>
		
			<line clip-path="url(#SVGID_4_)" fill="none" stroke="#FFFFFF" stroke-miterlimit="10" x1="-99.008" y1="123.121" x2="100.953" y2="-77.983"/>
		
			<line clip-path="url(#SVGID_4_)" fill="none" stroke="#FFFFFF" stroke-miterlimit="10" x1="-93.24" y1="123.121" x2="106.721" y2="-77.983"/>
		
			<line clip-path="url(#SVGID_4_)" fill="none" stroke="#FFFFFF" stroke-miterlimit="10" x1="-87.472" y1="123.121" x2="112.489" y2="-77.983"/>
		
			<line clip-path="url(#SVGID_4_)" fill="none" stroke="#FFFFFF" stroke-miterlimit="10" x1="-81.704" y1="123.121" x2="118.257" y2="-77.983"/>
		
			<line clip-path="url(#SVGID_4_)" fill="none" stroke="#FFFFFF" stroke-miterlimit="10" x1="-75.936" y1="123.121" x2="124.025" y2="-77.983"/>
		
			<line clip-path="url(#SVGID_4_)" fill="none" stroke="#FFFFFF" stroke-miterlimit="10" x1="-70.168" y1="123.121" x2="129.793" y2="-77.983"/>
		
			<line clip-path="url(#SVGID_4_)" fill="none" stroke="#FFFFFF" stroke-miterlimit="10" x1="-64.399" y1="123.121" x2="135.561" y2="-77.983"/>
		
			<line clip-path="url(#SVGID_4_)" fill="none" stroke="#FFFFFF" stroke-miterlimit="10" x1="-58.631" y1="123.121" x2="141.329" y2="-77.983"/>
		
			<line clip-path="url(#SVGID_4_)" fill="none" stroke="#FFFFFF" stroke-miterlimit="10" x1="-52.863" y1="123.121" x2="147.098" y2="-77.983"/>
		
			<line clip-path="url(#SVGID_4_)" fill="none" stroke="#FFFFFF" stroke-miterlimit="10" x1="-47.095" y1="123.121" x2="152.866" y2="-77.983"/>
		
			<line clip-path="url(#SVGID_4_)" fill="none" stroke="#FFFFFF" stroke-miterlimit="10" x1="-41.327" y1="123.121" x2="158.634" y2="-77.983"/>
		
			<line clip-path="url(#SVGID_4_)" fill="none" stroke="#FFFFFF" stroke-miterlimit="10" x1="-35.559" y1="123.121" x2="164.402" y2="-77.983"/>
		
			<line clip-path="url(#SVGID_4_)" fill="none" stroke="#FFFFFF" stroke-miterlimit="10" x1="-29.791" y1="123.121" x2="170.17" y2="-77.983"/>
		
			<line clip-path="url(#SVGID_4_)" fill="none" stroke="#FFFFFF" stroke-miterlimit="10" x1="-24.023" y1="123.121" x2="175.938" y2="-77.983"/>
	</g>
</g>
</svg>
