<?xml version="1.0" encoding="utf-8"?>
<!-- Generator: Adobe Illustrator 17.0.0, SVG Export Plug-In . SVG Version: 6.00 Build 0)  -->
<!DOCTYPE svg PUBLIC "-//W3C//DTD SVG 1.1//EN" "http://www.w3.org/Graphics/SVG/1.1/DTD/svg11.dtd">
<svg version="1.1" id="Isolation_Mode" xmlns="http://www.w3.org/2000/svg" xmlns:xlink="http://www.w3.org/1999/xlink" x="0px"
	 y="0px" width="396px" height="103px" viewBox="0 0 396 103" enable-background="new 0 0 396 103" xml:space="preserve">
<g>
	<rect x="-3.657" y="34.503" fill="none" width="414.729" height="61.497"/>
	<text transform="matrix(1 0 0 1 -3.657 69.8785)" fill="#E0E0E0" font-family="'Lato-Regular'" font-size="48" letter-spacing="4">MOBILE  LEARN</text>
	<g>
		<defs>
			<rect id="SVGID_1_" width="396" height="20"/>
		</defs>
		<clipPath id="SVGID_2_">
			<use xlink:href="#SVGID_1_"  overflow="visible"/>
		</clipPath>
		
			<line clip-path="url(#SVGID_2_)" fill="none" stroke="#E0E0E0" stroke-miterlimit="10" x1="209.812" y1="29" x2="416.631" y2="-179"/>
		
			<line clip-path="url(#SVGID_2_)" fill="none" stroke="#E0E0E0" stroke-miterlimit="10" x1="215.778" y1="29" x2="422.597" y2="-179"/>
		
			<line clip-path="url(#SVGID_2_)" fill="none" stroke="#E0E0E0" stroke-miterlimit="10" x1="221.744" y1="29" x2="428.562" y2="-179"/>
		
			<line clip-path="url(#SVGID_2_)" fill="none" stroke="#E0E0E0" stroke-miterlimit="10" x1="227.71" y1="29" x2="434.528" y2="-179"/>
		
			<line clip-path="url(#SVGID_2_)" fill="none" stroke="#E0E0E0" stroke-miterlimit="10" x1="233.676" y1="29" x2="440.494" y2="-179"/>
		
			<line clip-path="url(#SVGID_2_)" fill="none" stroke="#E0E0E0" stroke-miterlimit="10" x1="239.642" y1="29" x2="446.46" y2="-179"/>
		
			<line clip-path="url(#SVGID_2_)" fill="none" stroke="#E0E0E0" stroke-miterlimit="10" x1="245.608" y1="29" x2="452.426" y2="-179"/>
		
			<line clip-path="url(#SVGID_2_)" fill="none" stroke="#E0E0E0" stroke-miterlimit="10" x1="251.574" y1="29" x2="458.392" y2="-179"/>
		
			<line clip-path="url(#SVGID_2_)" fill="none" stroke="#E0E0E0" stroke-miterlimit="10" x1="257.54" y1="29" x2="464.358" y2="-179"/>
		
			<line clip-path="url(#SVGID_2_)" fill="none" stroke="#E0E0E0" stroke-miterlimit="10" x1="263.506" y1="29" x2="470.324" y2="-179"/>
		
			<line clip-path="url(#SVGID_2_)" fill="none" stroke="#E0E0E0" stroke-miterlimit="10" x1="269.472" y1="29" x2="476.29" y2="-179"/>
		
			<line clip-path="url(#SVGID_2_)" fill="none" stroke="#E0E0E0" stroke-miterlimit="10" x1="275.438" y1="29" x2="482.256" y2="-179"/>
		
			<line clip-path="url(#SVGID_2_)" fill="none" stroke="#E0E0E0" stroke-miterlimit="10" x1="281.403" y1="29" x2="488.222" y2="-179"/>
		
			<line clip-path="url(#SVGID_2_)" fill="none" stroke="#E0E0E0" stroke-miterlimit="10" x1="287.369" y1="29" x2="494.188" y2="-179"/>
		
			<line clip-path="url(#SVGID_2_)" fill="none" stroke="#E0E0E0" stroke-miterlimit="10" x1="293.335" y1="29" x2="500.153" y2="-179"/>
		
			<line clip-path="url(#SVGID_2_)" fill="none" stroke="#E0E0E0" stroke-miterlimit="10" x1="299.301" y1="29" x2="506.119" y2="-179"/>
		
			<line clip-path="url(#SVGID_2_)" fill="none" stroke="#E0E0E0" stroke-miterlimit="10" x1="305.267" y1="29" x2="512.085" y2="-179"/>
		
			<line clip-path="url(#SVGID_2_)" fill="none" stroke="#E0E0E0" stroke-miterlimit="10" x1="311.233" y1="29" x2="518.051" y2="-179"/>
		
			<line clip-path="url(#SVGID_2_)" fill="none" stroke="#E0E0E0" stroke-miterlimit="10" x1="317.199" y1="29" x2="524.017" y2="-179"/>
		
			<line clip-path="url(#SVGID_2_)" fill="none" stroke="#E0E0E0" stroke-miterlimit="10" x1="323.165" y1="29" x2="529.983" y2="-179"/>
		
			<line clip-path="url(#SVGID_2_)" fill="none" stroke="#E0E0E0" stroke-miterlimit="10" x1="329.131" y1="29" x2="535.949" y2="-179"/>
		
			<line clip-path="url(#SVGID_2_)" fill="none" stroke="#E0E0E0" stroke-miterlimit="10" x1="335.097" y1="29" x2="541.915" y2="-179"/>
		
			<line clip-path="url(#SVGID_2_)" fill="none" stroke="#E0E0E0" stroke-miterlimit="10" x1="341.062" y1="29" x2="547.881" y2="-179"/>
		
			<line clip-path="url(#SVGID_2_)" fill="none" stroke="#E0E0E0" stroke-miterlimit="10" x1="347.028" y1="29" x2="553.847" y2="-179"/>
		
			<line clip-path="url(#SVGID_2_)" fill="none" stroke="#E0E0E0" stroke-miterlimit="10" x1="352.994" y1="29" x2="559.812" y2="-179"/>
		
			<line clip-path="url(#SVGID_2_)" fill="none" stroke="#E0E0E0" stroke-miterlimit="10" x1="358.96" y1="29" x2="565.778" y2="-179"/>
		
			<line clip-path="url(#SVGID_2_)" fill="none" stroke="#E0E0E0" stroke-miterlimit="10" x1="364.926" y1="29" x2="571.744" y2="-179"/>
		
			<line clip-path="url(#SVGID_2_)" fill="none" stroke="#E0E0E0" stroke-miterlimit="10" x1="370.892" y1="29" x2="577.71" y2="-179"/>
		
			<line clip-path="url(#SVGID_2_)" fill="none" stroke="#E0E0E0" stroke-miterlimit="10" x1="376.858" y1="29" x2="583.676" y2="-179"/>
		
			<line clip-path="url(#SVGID_2_)" fill="none" stroke="#E0E0E0" stroke-miterlimit="10" x1="382.824" y1="29" x2="589.642" y2="-179"/>
		
			<line clip-path="url(#SVGID_2_)" fill="none" stroke="#E0E0E0" stroke-miterlimit="10" x1="388.79" y1="29" x2="595.608" y2="-179"/>
		
			<line clip-path="url(#SVGID_2_)" fill="none" stroke="#E0E0E0" stroke-miterlimit="10" x1="-123.284" y1="184" x2="83.534" y2="-24"/>
		
			<line clip-path="url(#SVGID_2_)" fill="none" stroke="#E0E0E0" stroke-miterlimit="10" x1="-117.318" y1="184" x2="89.5" y2="-24"/>
		
			<line clip-path="url(#SVGID_2_)" fill="none" stroke="#E0E0E0" stroke-miterlimit="10" x1="-111.352" y1="184" x2="95.466" y2="-24"/>
		
			<line clip-path="url(#SVGID_2_)" fill="none" stroke="#E0E0E0" stroke-miterlimit="10" x1="-105.386" y1="184" x2="101.432" y2="-24"/>
		
			<line clip-path="url(#SVGID_2_)" fill="none" stroke="#E0E0E0" stroke-miterlimit="10" x1="-99.42" y1="184" x2="107.398" y2="-24"/>
		
			<line clip-path="url(#SVGID_2_)" fill="none" stroke="#E0E0E0" stroke-miterlimit="10" x1="-93.455" y1="184" x2="113.364" y2="-24"/>
		
			<line clip-path="url(#SVGID_2_)" fill="none" stroke="#E0E0E0" stroke-miterlimit="10" x1="-87.489" y1="184" x2="119.33" y2="-24"/>
		
			<line clip-path="url(#SVGID_2_)" fill="none" stroke="#E0E0E0" stroke-miterlimit="10" x1="-81.523" y1="184" x2="125.295" y2="-24"/>
		
			<line clip-path="url(#SVGID_2_)" fill="none" stroke="#E0E0E0" stroke-miterlimit="10" x1="-75.557" y1="184" x2="131.261" y2="-24"/>
		
			<line clip-path="url(#SVGID_2_)" fill="none" stroke="#E0E0E0" stroke-miterlimit="10" x1="-69.591" y1="184" x2="137.227" y2="-24"/>
		
			<line clip-path="url(#SVGID_2_)" fill="none" stroke="#E0E0E0" stroke-miterlimit="10" x1="-63.625" y1="184" x2="143.193" y2="-24"/>
		
			<line clip-path="url(#SVGID_2_)" fill="none" stroke="#E0E0E0" stroke-miterlimit="10" x1="-57.659" y1="184" x2="149.159" y2="-24"/>
		
			<line clip-path="url(#SVGID_2_)" fill="none" stroke="#E0E0E0" stroke-miterlimit="10" x1="-51.693" y1="184" x2="155.125" y2="-24"/>
		
			<line clip-path="url(#SVGID_2_)" fill="none" stroke="#E0E0E0" stroke-miterlimit="10" x1="-45.727" y1="184" x2="161.091" y2="-24"/>
		
			<line clip-path="url(#SVGID_2_)" fill="none" stroke="#E0E0E0" stroke-miterlimit="10" x1="-39.761" y1="184" x2="167.057" y2="-24"/>
		
			<line clip-path="url(#SVGID_2_)" fill="none" stroke="#E0E0E0" stroke-miterlimit="10" x1="-33.795" y1="184" x2="173.023" y2="-24"/>
		
			<line clip-path="url(#SVGID_2_)" fill="none" stroke="#E0E0E0" stroke-miterlimit="10" x1="-27.83" y1="184" x2="178.989" y2="-24"/>
		
			<line clip-path="url(#SVGID_2_)" fill="none" stroke="#E0E0E0" stroke-miterlimit="10" x1="-21.864" y1="184" x2="184.955" y2="-24"/>
		
			<line clip-path="url(#SVGID_2_)" fill="none" stroke="#E0E0E0" stroke-miterlimit="10" x1="-15.898" y1="184" x2="190.92" y2="-24"/>
		
			<line clip-path="url(#SVGID_2_)" fill="none" stroke="#E0E0E0" stroke-miterlimit="10" x1="-9.932" y1="184" x2="196.886" y2="-24"/>
		
			<line clip-path="url(#SVGID_2_)" fill="none" stroke="#E0E0E0" stroke-miterlimit="10" x1="-3.966" y1="184" x2="202.852" y2="-24"/>
		<line clip-path="url(#SVGID_2_)" fill="none" stroke="#E0E0E0" stroke-miterlimit="10" x1="2" y1="184" x2="208.818" y2="-24"/>
		
			<line clip-path="url(#SVGID_2_)" fill="none" stroke="#E0E0E0" stroke-miterlimit="10" x1="7.966" y1="184" x2="214.784" y2="-24"/>
		
			<line clip-path="url(#SVGID_2_)" fill="none" stroke="#E0E0E0" stroke-miterlimit="10" x1="13.932" y1="184" x2="220.75" y2="-24"/>
		
			<line clip-path="url(#SVGID_2_)" fill="none" stroke="#E0E0E0" stroke-miterlimit="10" x1="19.898" y1="184" x2="226.716" y2="-24"/>
		
			<line clip-path="url(#SVGID_2_)" fill="none" stroke="#E0E0E0" stroke-miterlimit="10" x1="25.864" y1="184" x2="232.682" y2="-24"/>
		
			<line clip-path="url(#SVGID_2_)" fill="none" stroke="#E0E0E0" stroke-miterlimit="10" x1="31.83" y1="184" x2="238.648" y2="-24"/>
		
			<line clip-path="url(#SVGID_2_)" fill="none" stroke="#E0E0E0" stroke-miterlimit="10" x1="37.795" y1="184" x2="244.614" y2="-24"/>
		
			<line clip-path="url(#SVGID_2_)" fill="none" stroke="#E0E0E0" stroke-miterlimit="10" x1="43.761" y1="184" x2="250.58" y2="-24"/>
		
			<line clip-path="url(#SVGID_2_)" fill="none" stroke="#E0E0E0" stroke-miterlimit="10" x1="49.727" y1="184" x2="256.545" y2="-24"/>
		
			<line clip-path="url(#SVGID_2_)" fill="none" stroke="#E0E0E0" stroke-miterlimit="10" x1="55.693" y1="184" x2="262.511" y2="-24"/>
		
			<line clip-path="url(#SVGID_2_)" fill="none" stroke="#E0E0E0" stroke-miterlimit="10" x1="-203.824" y1="127" x2="2.994" y2="-81"/>
		
			<line clip-path="url(#SVGID_2_)" fill="none" stroke="#E0E0E0" stroke-miterlimit="10" x1="-197.858" y1="127" x2="8.96" y2="-81"/>
		
			<line clip-path="url(#SVGID_2_)" fill="none" stroke="#E0E0E0" stroke-miterlimit="10" x1="-191.892" y1="127" x2="14.926" y2="-81"/>
		
			<line clip-path="url(#SVGID_2_)" fill="none" stroke="#E0E0E0" stroke-miterlimit="10" x1="-185.926" y1="127" x2="20.892" y2="-81"/>
		
			<line clip-path="url(#SVGID_2_)" fill="none" stroke="#E0E0E0" stroke-miterlimit="10" x1="-179.96" y1="127" x2="26.858" y2="-81"/>
		
			<line clip-path="url(#SVGID_2_)" fill="none" stroke="#E0E0E0" stroke-miterlimit="10" x1="-173.994" y1="127" x2="32.824" y2="-81"/>
		
			<line clip-path="url(#SVGID_2_)" fill="none" stroke="#E0E0E0" stroke-miterlimit="10" x1="-168.028" y1="127" x2="38.79" y2="-81"/>
		
			<line clip-path="url(#SVGID_2_)" fill="none" stroke="#E0E0E0" stroke-miterlimit="10" x1="-162.062" y1="127" x2="44.756" y2="-81"/>
		
			<line clip-path="url(#SVGID_2_)" fill="none" stroke="#E0E0E0" stroke-miterlimit="10" x1="-156.097" y1="127" x2="50.722" y2="-81"/>
		
			<line clip-path="url(#SVGID_2_)" fill="none" stroke="#E0E0E0" stroke-miterlimit="10" x1="-150.131" y1="127" x2="56.688" y2="-81"/>
		
			<line clip-path="url(#SVGID_2_)" fill="none" stroke="#E0E0E0" stroke-miterlimit="10" x1="-144.165" y1="127" x2="62.653" y2="-81"/>
		
			<line clip-path="url(#SVGID_2_)" fill="none" stroke="#E0E0E0" stroke-miterlimit="10" x1="-138.199" y1="127" x2="68.619" y2="-81"/>
		
			<line clip-path="url(#SVGID_2_)" fill="none" stroke="#E0E0E0" stroke-miterlimit="10" x1="-132.233" y1="127" x2="74.585" y2="-81"/>
		
			<line clip-path="url(#SVGID_2_)" fill="none" stroke="#E0E0E0" stroke-miterlimit="10" x1="-126.267" y1="127" x2="80.551" y2="-81"/>
		
			<line clip-path="url(#SVGID_2_)" fill="none" stroke="#E0E0E0" stroke-miterlimit="10" x1="-120.301" y1="127" x2="86.517" y2="-81"/>
		
			<line clip-path="url(#SVGID_2_)" fill="none" stroke="#E0E0E0" stroke-miterlimit="10" x1="-114.335" y1="127" x2="92.483" y2="-81"/>
		
			<line clip-path="url(#SVGID_2_)" fill="none" stroke="#E0E0E0" stroke-miterlimit="10" x1="-108.369" y1="127" x2="98.449" y2="-81"/>
		
			<line clip-path="url(#SVGID_2_)" fill="none" stroke="#E0E0E0" stroke-miterlimit="10" x1="-102.403" y1="127" x2="104.415" y2="-81"/>
		
			<line clip-path="url(#SVGID_2_)" fill="none" stroke="#E0E0E0" stroke-miterlimit="10" x1="-96.438" y1="127" x2="110.381" y2="-81"/>
		
			<line clip-path="url(#SVGID_2_)" fill="none" stroke="#E0E0E0" stroke-miterlimit="10" x1="-90.472" y1="127" x2="116.347" y2="-81"/>
		
			<line clip-path="url(#SVGID_2_)" fill="none" stroke="#E0E0E0" stroke-miterlimit="10" x1="-84.506" y1="127" x2="122.312" y2="-81"/>
		
			<line clip-path="url(#SVGID_2_)" fill="none" stroke="#E0E0E0" stroke-miterlimit="10" x1="-78.54" y1="127" x2="128.278" y2="-81"/>
		
			<line clip-path="url(#SVGID_2_)" fill="none" stroke="#E0E0E0" stroke-miterlimit="10" x1="-72.574" y1="127" x2="134.244" y2="-81"/>
		
			<line clip-path="url(#SVGID_2_)" fill="none" stroke="#E0E0E0" stroke-miterlimit="10" x1="-66.608" y1="127" x2="140.21" y2="-81"/>
		
			<line clip-path="url(#SVGID_2_)" fill="none" stroke="#E0E0E0" stroke-miterlimit="10" x1="-60.642" y1="127" x2="146.176" y2="-81"/>
		
			<line clip-path="url(#SVGID_2_)" fill="none" stroke="#E0E0E0" stroke-miterlimit="10" x1="-54.676" y1="127" x2="152.142" y2="-81"/>
		
			<line clip-path="url(#SVGID_2_)" fill="none" stroke="#E0E0E0" stroke-miterlimit="10" x1="-48.71" y1="127" x2="158.108" y2="-81"/>
		
			<line clip-path="url(#SVGID_2_)" fill="none" stroke="#E0E0E0" stroke-miterlimit="10" x1="-42.744" y1="127" x2="164.074" y2="-81"/>
		
			<line clip-path="url(#SVGID_2_)" fill="none" stroke="#E0E0E0" stroke-miterlimit="10" x1="-36.778" y1="127" x2="170.04" y2="-81"/>
		
			<line clip-path="url(#SVGID_2_)" fill="none" stroke="#E0E0E0" stroke-miterlimit="10" x1="-30.812" y1="127" x2="176.006" y2="-81"/>
		
			<line clip-path="url(#SVGID_2_)" fill="none" stroke="#E0E0E0" stroke-miterlimit="10" x1="-24.847" y1="127" x2="181.972" y2="-81"/>
	</g>
	<g>
		<defs>
			<rect id="SVGID_3_" y="83" width="396" height="20"/>
		</defs>
		<clipPath id="SVGID_4_">
			<use xlink:href="#SVGID_3_"  overflow="visible"/>
		</clipPath>
		
			<line clip-path="url(#SVGID_4_)" fill="none" stroke="#E0E0E0" stroke-miterlimit="10" x1="209.812" y1="112" x2="416.631" y2="-96"/>
		
			<line clip-path="url(#SVGID_4_)" fill="none" stroke="#E0E0E0" stroke-miterlimit="10" x1="215.778" y1="112" x2="422.597" y2="-96"/>
		
			<line clip-path="url(#SVGID_4_)" fill="none" stroke="#E0E0E0" stroke-miterlimit="10" x1="221.744" y1="112" x2="428.562" y2="-96"/>
		
			<line clip-path="url(#SVGID_4_)" fill="none" stroke="#E0E0E0" stroke-miterlimit="10" x1="227.71" y1="112" x2="434.528" y2="-96"/>
		
			<line clip-path="url(#SVGID_4_)" fill="none" stroke="#E0E0E0" stroke-miterlimit="10" x1="233.676" y1="112" x2="440.494" y2="-96"/>
		
			<line clip-path="url(#SVGID_4_)" fill="none" stroke="#E0E0E0" stroke-miterlimit="10" x1="239.642" y1="112" x2="446.46" y2="-96"/>
		
			<line clip-path="url(#SVGID_4_)" fill="none" stroke="#E0E0E0" stroke-miterlimit="10" x1="245.608" y1="112" x2="452.426" y2="-96"/>
		
			<line clip-path="url(#SVGID_4_)" fill="none" stroke="#E0E0E0" stroke-miterlimit="10" x1="251.574" y1="112" x2="458.392" y2="-96"/>
		
			<line clip-path="url(#SVGID_4_)" fill="none" stroke="#E0E0E0" stroke-miterlimit="10" x1="257.54" y1="112" x2="464.358" y2="-96"/>
		
			<line clip-path="url(#SVGID_4_)" fill="none" stroke="#E0E0E0" stroke-miterlimit="10" x1="263.506" y1="112" x2="470.324" y2="-96"/>
		
			<line clip-path="url(#SVGID_4_)" fill="none" stroke="#E0E0E0" stroke-miterlimit="10" x1="269.472" y1="112" x2="476.29" y2="-96"/>
		
			<line clip-path="url(#SVGID_4_)" fill="none" stroke="#E0E0E0" stroke-miterlimit="10" x1="275.438" y1="112" x2="482.256" y2="-96"/>
		
			<line clip-path="url(#SVGID_4_)" fill="none" stroke="#E0E0E0" stroke-miterlimit="10" x1="281.403" y1="112" x2="488.222" y2="-96"/>
		
			<line clip-path="url(#SVGID_4_)" fill="none" stroke="#E0E0E0" stroke-miterlimit="10" x1="287.369" y1="112" x2="494.188" y2="-96"/>
		
			<line clip-path="url(#SVGID_4_)" fill="none" stroke="#E0E0E0" stroke-miterlimit="10" x1="293.335" y1="112" x2="500.153" y2="-96"/>
		
			<line clip-path="url(#SVGID_4_)" fill="none" stroke="#E0E0E0" stroke-miterlimit="10" x1="299.301" y1="112" x2="506.119" y2="-96"/>
		
			<line clip-path="url(#SVGID_4_)" fill="none" stroke="#E0E0E0" stroke-miterlimit="10" x1="305.267" y1="112" x2="512.085" y2="-96"/>
		
			<line clip-path="url(#SVGID_4_)" fill="none" stroke="#E0E0E0" stroke-miterlimit="10" x1="311.233" y1="112" x2="518.051" y2="-96"/>
		
			<line clip-path="url(#SVGID_4_)" fill="none" stroke="#E0E0E0" stroke-miterlimit="10" x1="317.199" y1="112" x2="524.017" y2="-96"/>
		
			<line clip-path="url(#SVGID_4_)" fill="none" stroke="#E0E0E0" stroke-miterlimit="10" x1="323.165" y1="112" x2="529.983" y2="-96"/>
		
			<line clip-path="url(#SVGID_4_)" fill="none" stroke="#E0E0E0" stroke-miterlimit="10" x1="329.131" y1="112" x2="535.949" y2="-96"/>
		
			<line clip-path="url(#SVGID_4_)" fill="none" stroke="#E0E0E0" stroke-miterlimit="10" x1="335.097" y1="112" x2="541.915" y2="-96"/>
		
			<line clip-path="url(#SVGID_4_)" fill="none" stroke="#E0E0E0" stroke-miterlimit="10" x1="341.062" y1="112" x2="547.881" y2="-96"/>
		
			<line clip-path="url(#SVGID_4_)" fill="none" stroke="#E0E0E0" stroke-miterlimit="10" x1="347.028" y1="112" x2="553.847" y2="-96"/>
		
			<line clip-path="url(#SVGID_4_)" fill="none" stroke="#E0E0E0" stroke-miterlimit="10" x1="352.994" y1="112" x2="559.812" y2="-96"/>
		
			<line clip-path="url(#SVGID_4_)" fill="none" stroke="#E0E0E0" stroke-miterlimit="10" x1="358.96" y1="112" x2="565.778" y2="-96"/>
		
			<line clip-path="url(#SVGID_4_)" fill="none" stroke="#E0E0E0" stroke-miterlimit="10" x1="364.926" y1="112" x2="571.744" y2="-96"/>
		
			<line clip-path="url(#SVGID_4_)" fill="none" stroke="#E0E0E0" stroke-miterlimit="10" x1="370.892" y1="112" x2="577.71" y2="-96"/>
		
			<line clip-path="url(#SVGID_4_)" fill="none" stroke="#E0E0E0" stroke-miterlimit="10" x1="376.858" y1="112" x2="583.676" y2="-96"/>
		
			<line clip-path="url(#SVGID_4_)" fill="none" stroke="#E0E0E0" stroke-miterlimit="10" x1="382.824" y1="112" x2="589.642" y2="-96"/>
		
			<line clip-path="url(#SVGID_4_)" fill="none" stroke="#E0E0E0" stroke-miterlimit="10" x1="388.79" y1="112" x2="595.608" y2="-96"/>
		
			<line clip-path="url(#SVGID_4_)" fill="none" stroke="#E0E0E0" stroke-miterlimit="10" x1="-123.284" y1="267" x2="83.534" y2="59"/>
		
			<line clip-path="url(#SVGID_4_)" fill="none" stroke="#E0E0E0" stroke-miterlimit="10" x1="-117.318" y1="267" x2="89.5" y2="59"/>
		
			<line clip-path="url(#SVGID_4_)" fill="none" stroke="#E0E0E0" stroke-miterlimit="10" x1="-111.352" y1="267" x2="95.466" y2="59"/>
		
			<line clip-path="url(#SVGID_4_)" fill="none" stroke="#E0E0E0" stroke-miterlimit="10" x1="-105.386" y1="267" x2="101.432" y2="59"/>
		
			<line clip-path="url(#SVGID_4_)" fill="none" stroke="#E0E0E0" stroke-miterlimit="10" x1="-99.42" y1="267" x2="107.398" y2="59"/>
		
			<line clip-path="url(#SVGID_4_)" fill="none" stroke="#E0E0E0" stroke-miterlimit="10" x1="-93.455" y1="267" x2="113.364" y2="59"/>
		
			<line clip-path="url(#SVGID_4_)" fill="none" stroke="#E0E0E0" stroke-miterlimit="10" x1="-87.489" y1="267" x2="119.33" y2="59"/>
		
			<line clip-path="url(#SVGID_4_)" fill="none" stroke="#E0E0E0" stroke-miterlimit="10" x1="-81.523" y1="267" x2="125.295" y2="59"/>
		
			<line clip-path="url(#SVGID_4_)" fill="none" stroke="#E0E0E0" stroke-miterlimit="10" x1="-75.557" y1="267" x2="131.261" y2="59"/>
		
			<line clip-path="url(#SVGID_4_)" fill="none" stroke="#E0E0E0" stroke-miterlimit="10" x1="-69.591" y1="267" x2="137.227" y2="59"/>
		
			<line clip-path="url(#SVGID_4_)" fill="none" stroke="#E0E0E0" stroke-miterlimit="10" x1="-63.625" y1="267" x2="143.193" y2="59"/>
		
			<line clip-path="url(#SVGID_4_)" fill="none" stroke="#E0E0E0" stroke-miterlimit="10" x1="-57.659" y1="267" x2="149.159" y2="59"/>
		
			<line clip-path="url(#SVGID_4_)" fill="none" stroke="#E0E0E0" stroke-miterlimit="10" x1="-51.693" y1="267" x2="155.125" y2="59"/>
		
			<line clip-path="url(#SVGID_4_)" fill="none" stroke="#E0E0E0" stroke-miterlimit="10" x1="-45.727" y1="267" x2="161.091" y2="59"/>
		
			<line clip-path="url(#SVGID_4_)" fill="none" stroke="#E0E0E0" stroke-miterlimit="10" x1="-39.761" y1="267" x2="167.057" y2="59"/>
		
			<line clip-path="url(#SVGID_4_)" fill="none" stroke="#E0E0E0" stroke-miterlimit="10" x1="-33.795" y1="267" x2="173.023" y2="59"/>
		
			<line clip-path="url(#SVGID_4_)" fill="none" stroke="#E0E0E0" stroke-miterlimit="10" x1="-27.83" y1="267" x2="178.989" y2="59"/>
		
			<line clip-path="url(#SVGID_4_)" fill="none" stroke="#E0E0E0" stroke-miterlimit="10" x1="-21.864" y1="267" x2="184.955" y2="59"/>
		
			<line clip-path="url(#SVGID_4_)" fill="none" stroke="#E0E0E0" stroke-miterlimit="10" x1="-15.898" y1="267" x2="190.92" y2="59"/>
		
			<line clip-path="url(#SVGID_4_)" fill="none" stroke="#E0E0E0" stroke-miterlimit="10" x1="-9.932" y1="267" x2="196.886" y2="59"/>
		
			<line clip-path="url(#SVGID_4_)" fill="none" stroke="#E0E0E0" stroke-miterlimit="10" x1="-3.966" y1="267" x2="202.852" y2="59"/>
		<line clip-path="url(#SVGID_4_)" fill="none" stroke="#E0E0E0" stroke-miterlimit="10" x1="2" y1="267" x2="208.818" y2="59"/>
		
			<line clip-path="url(#SVGID_4_)" fill="none" stroke="#E0E0E0" stroke-miterlimit="10" x1="7.966" y1="267" x2="214.784" y2="59"/>
		
			<line clip-path="url(#SVGID_4_)" fill="none" stroke="#E0E0E0" stroke-miterlimit="10" x1="13.932" y1="267" x2="220.75" y2="59"/>
		
			<line clip-path="url(#SVGID_4_)" fill="none" stroke="#E0E0E0" stroke-miterlimit="10" x1="19.898" y1="267" x2="226.716" y2="59"/>
		
			<line clip-path="url(#SVGID_4_)" fill="none" stroke="#E0E0E0" stroke-miterlimit="10" x1="25.864" y1="267" x2="232.682" y2="59"/>
		
			<line clip-path="url(#SVGID_4_)" fill="none" stroke="#E0E0E0" stroke-miterlimit="10" x1="31.83" y1="267" x2="238.648" y2="59"/>
		
			<line clip-path="url(#SVGID_4_)" fill="none" stroke="#E0E0E0" stroke-miterlimit="10" x1="37.795" y1="267" x2="244.614" y2="59"/>
		
			<line clip-path="url(#SVGID_4_)" fill="none" stroke="#E0E0E0" stroke-miterlimit="10" x1="43.761" y1="267" x2="250.58" y2="59"/>
		
			<line clip-path="url(#SVGID_4_)" fill="none" stroke="#E0E0E0" stroke-miterlimit="10" x1="49.727" y1="267" x2="256.545" y2="59"/>
		
			<line clip-path="url(#SVGID_4_)" fill="none" stroke="#E0E0E0" stroke-miterlimit="10" x1="55.693" y1="267" x2="262.511" y2="59"/>
		
			<line clip-path="url(#SVGID_4_)" fill="none" stroke="#E0E0E0" stroke-miterlimit="10" x1="-203.824" y1="210" x2="2.994" y2="2"/>
		<line clip-path="url(#SVGID_4_)" fill="none" stroke="#E0E0E0" stroke-miterlimit="10" x1="-197.858" y1="210" x2="8.96" y2="2"/>
		
			<line clip-path="url(#SVGID_4_)" fill="none" stroke="#E0E0E0" stroke-miterlimit="10" x1="-191.892" y1="210" x2="14.926" y2="2"/>
		
			<line clip-path="url(#SVGID_4_)" fill="none" stroke="#E0E0E0" stroke-miterlimit="10" x1="-185.926" y1="210" x2="20.892" y2="2"/>
		
			<line clip-path="url(#SVGID_4_)" fill="none" stroke="#E0E0E0" stroke-miterlimit="10" x1="-179.96" y1="210" x2="26.858" y2="2"/>
		
			<line clip-path="url(#SVGID_4_)" fill="none" stroke="#E0E0E0" stroke-miterlimit="10" x1="-173.994" y1="210" x2="32.824" y2="2"/>
		
			<line clip-path="url(#SVGID_4_)" fill="none" stroke="#E0E0E0" stroke-miterlimit="10" x1="-168.028" y1="210" x2="38.79" y2="2"/>
		
			<line clip-path="url(#SVGID_4_)" fill="none" stroke="#E0E0E0" stroke-miterlimit="10" x1="-162.062" y1="210" x2="44.756" y2="2"/>
		
			<line clip-path="url(#SVGID_4_)" fill="none" stroke="#E0E0E0" stroke-miterlimit="10" x1="-156.097" y1="210" x2="50.722" y2="2"/>
		
			<line clip-path="url(#SVGID_4_)" fill="none" stroke="#E0E0E0" stroke-miterlimit="10" x1="-150.131" y1="210" x2="56.688" y2="2"/>
		
			<line clip-path="url(#SVGID_4_)" fill="none" stroke="#E0E0E0" stroke-miterlimit="10" x1="-144.165" y1="210" x2="62.653" y2="2"/>
		
			<line clip-path="url(#SVGID_4_)" fill="none" stroke="#E0E0E0" stroke-miterlimit="10" x1="-138.199" y1="210" x2="68.619" y2="2"/>
		
			<line clip-path="url(#SVGID_4_)" fill="none" stroke="#E0E0E0" stroke-miterlimit="10" x1="-132.233" y1="210" x2="74.585" y2="2"/>
		
			<line clip-path="url(#SVGID_4_)" fill="none" stroke="#E0E0E0" stroke-miterlimit="10" x1="-126.267" y1="210" x2="80.551" y2="2"/>
		
			<line clip-path="url(#SVGID_4_)" fill="none" stroke="#E0E0E0" stroke-miterlimit="10" x1="-120.301" y1="210" x2="86.517" y2="2"/>
		
			<line clip-path="url(#SVGID_4_)" fill="none" stroke="#E0E0E0" stroke-miterlimit="10" x1="-114.335" y1="210" x2="92.483" y2="2"/>
		
			<line clip-path="url(#SVGID_4_)" fill="none" stroke="#E0E0E0" stroke-miterlimit="10" x1="-108.369" y1="210" x2="98.449" y2="2"/>
		
			<line clip-path="url(#SVGID_4_)" fill="none" stroke="#E0E0E0" stroke-miterlimit="10" x1="-102.403" y1="210" x2="104.415" y2="2"/>
		
			<line clip-path="url(#SVGID_4_)" fill="none" stroke="#E0E0E0" stroke-miterlimit="10" x1="-96.438" y1="210" x2="110.381" y2="2"/>
		
			<line clip-path="url(#SVGID_4_)" fill="none" stroke="#E0E0E0" stroke-miterlimit="10" x1="-90.472" y1="210" x2="116.347" y2="2"/>
		
			<line clip-path="url(#SVGID_4_)" fill="none" stroke="#E0E0E0" stroke-miterlimit="10" x1="-84.506" y1="210" x2="122.312" y2="2"/>
		
			<line clip-path="url(#SVGID_4_)" fill="none" stroke="#E0E0E0" stroke-miterlimit="10" x1="-78.54" y1="210" x2="128.278" y2="2"/>
		
			<line clip-path="url(#SVGID_4_)" fill="none" stroke="#E0E0E0" stroke-miterlimit="10" x1="-72.574" y1="210" x2="134.244" y2="2"/>
		
			<line clip-path="url(#SVGID_4_)" fill="none" stroke="#E0E0E0" stroke-miterlimit="10" x1="-66.608" y1="210" x2="140.21" y2="2"/>
		
			<line clip-path="url(#SVGID_4_)" fill="none" stroke="#E0E0E0" stroke-miterlimit="10" x1="-60.642" y1="210" x2="146.176" y2="2"/>
		
			<line clip-path="url(#SVGID_4_)" fill="none" stroke="#E0E0E0" stroke-miterlimit="10" x1="-54.676" y1="210" x2="152.142" y2="2"/>
		
			<line clip-path="url(#SVGID_4_)" fill="none" stroke="#E0E0E0" stroke-miterlimit="10" x1="-48.71" y1="210" x2="158.108" y2="2"/>
		
			<line clip-path="url(#SVGID_4_)" fill="none" stroke="#E0E0E0" stroke-miterlimit="10" x1="-42.744" y1="210" x2="164.074" y2="2"/>
		
			<line clip-path="url(#SVGID_4_)" fill="none" stroke="#E0E0E0" stroke-miterlimit="10" x1="-36.778" y1="210" x2="170.04" y2="2"/>
		
			<line clip-path="url(#SVGID_4_)" fill="none" stroke="#E0E0E0" stroke-miterlimit="10" x1="-30.812" y1="210" x2="176.006" y2="2"/>
		
			<line clip-path="url(#SVGID_4_)" fill="none" stroke="#E0E0E0" stroke-miterlimit="10" x1="-24.847" y1="210" x2="181.972" y2="2"/>
	</g>
</g>
</svg>
