<?xml version="1.0" encoding="utf-8"?>
<!-- Generator: Adobe Illustrator 17.0.0, SVG Export Plug-In . SVG Version: 6.00 Build 0)  -->
<!DOCTYPE svg PUBLIC "-//W3C//DTD SVG 1.1//EN" "http://www.w3.org/Graphics/SVG/1.1/DTD/svg11.dtd">
<svg version="1.1" id="Layer_1" xmlns="http://www.w3.org/2000/svg" xmlns:xlink="http://www.w3.org/1999/xlink" x="0px" y="0px"
	 width="202.155px" height="116.59px" viewBox="0 0 202.155 116.59" enable-background="new 0 0 202.155 116.59"
	 xml:space="preserve">
<g>
	<circle fill="#3F3F3F" cx="39.051" cy="75.271" r="6.396"/>
</g>
<g>
	<path fill="#3F3F3F" d="M36.988,74.002C36.942,75.101,37.805,76,38.905,76l0,0c1.1,0,2.024-0.9,2.053-1.999
		c0,0,0.222-8.424,0.385-13.688c0.188-6.062,1.775-7.961,1.775-7.961c0.705-0.844,2.142-1.803,3.191-2.132l57.673-18.048
		c1.05-0.329,1.647-1.459,1.328-2.511l-0.023-0.076c-0.32-1.053-1.441-1.648-2.492-1.322L44.732,46.235
		c-1.051,0.325-2.685,1.049-3.632,1.609c0,0-3.569,2.109-3.566,9.811C37.535,60.737,36.988,74.002,36.988,74.002z"/>
</g>
<path fill="#3F3F3F" d="M40.905,83.875C40.476,81.708,40.614,80,38.405,80l0,0c-2.209,0-1.474,2.308-1.75,4.5
	c-0.231,1.836-1.361,5.325-1.976,7.133C34.013,93.59,29.405,98,29.405,98c0,2.209,11.5,2.272,11.5,0.062c0,0,0.805-2,0.593-4.027
	C41.302,92.165,41.286,85.801,40.905,83.875z"/>
<g>
	<path fill="#3F3F3F" d="M104.455,12.571c-2.106-0.637-5.544-0.611-7.64,0.058L21.054,36.793c-2.096,0.669-2.092,1.749,0.009,2.401
		l26.303,8.166c2.101,0.652,5.54,0.654,7.641,0.003l46.876-14.511c2.102-0.651,4.088-0.305,4.414,0.769
		c0.326,1.074-1.125,2.489-3.225,3.146L62.157,49.573c-2.1,0.657-2.098,1.728,0.003,2.381l3.302,1.025
		c2.101,0.652,5.539,1.72,7.64,2.372l25.987,8.068c2.101,0.652,5.539,0.652,7.64,0l25.987-8.068c2.101-0.652,5.539-1.72,7.64-2.372
		l44.399-13.784c2.101-0.652,2.097-1.707-0.009-2.344L104.455,12.571z"/>
</g>
<g>
	<path fill="#3F3F3F" d="M104.771,69.658c-1.051,0.325-2.771,0.326-3.822,0.001L54.816,55.423c-1.051-0.324-1.911,0.31-1.911,1.41
		v33.339c0,1.1,0.783,2.443,1.741,2.984c0,0,23.426,13.242,47.431,13.242c28.326,0,53.77-8.416,53.823-13.579
		c0.057-5.506,0.015-36.986,0.015-36.986c-0.001-1.1-0.862-1.734-1.913-1.409L104.771,69.658z"/>
</g>
</svg>
